<?xml version="1.0" encoding="utf-8"?>
<!-- Generator: Adobe Illustrator 16.0.4, SVG Export Plug-In . SVG Version: 6.00 Build 0)  -->
<!DOCTYPE svg PUBLIC "-//W3C//DTD SVG 1.1//EN" "http://www.w3.org/Graphics/SVG/1.1/DTD/svg11.dtd">
<svg version="1.1" xmlns="http://www.w3.org/2000/svg" xmlns:xlink="http://www.w3.org/1999/xlink" x="0px" y="0px" width="668px"
	 height="76px" viewBox="0 0 668 76" enable-background="new 0 0 668 76" xml:space="preserve">
<g id="Layer_1">
	<g>
		<g>
			<path fill="#010202" d="M267.306,18.573c-14.309,0-22.698,9.233-22.698,24.608v6.054c0,15.594,8.389,24.563,22.609,24.563
				c14.264,0,21.418-8.704,21.418-18.468v-1.018H277.86c0,5.613-2.694,9.942-10.467,9.942c-7.684,0-11.481-4.773-11.481-15.021
				v-6.054c0-10.117,3.797-15.197,11.481-15.197c7.155,0,10.467,4.727,10.467,10.073h10.775v-0.575
				C288.635,27.011,280.598,18.573,267.306,18.573z M123.609,57.671h-0.176l-9.583-38.436h-11.394l-9.582,38.436h-0.178
				l-8.876-38.436H71.897l15.015,53.943h11.216l9.937-36.934h0.177l9.935,36.934h11.305l15.015-53.943h-11.924L123.609,57.671z
				 M41.693,12.255c2.517-3.181,4.239-7.421,3.798-11.751c-3.709,0.175-8.258,2.429-10.864,5.61
				c-2.34,2.694-4.416,7.113-3.886,11.31C34.892,17.777,39.043,15.303,41.693,12.255z M50.922,39.558
				c-0.088-9.322,7.595-13.739,7.949-14.004c-4.327-6.451-11.129-7.157-13.469-7.333c-6.05-0.354-11.216,3.446-14.131,3.446
				c-2.87,0-7.331-3.27-12.1-3.181C12.9,18.573,7.116,22.107,3.98,27.718C-2.556,38.939,2.257,55.596,8.573,64.74
				c3.091,4.506,6.799,9.498,11.657,9.323c4.637-0.178,6.447-3.005,12.057-3.005c5.608,0,7.242,3.005,12.099,2.915
				c5.08-0.088,8.258-4.551,11.305-9.057c3.534-5.17,4.99-10.161,5.079-10.426C60.681,54.402,51.011,50.69,50.922,39.558z
				 M333.677,19.235V40.84h-21.991V19.235H300.47v53.943h11.216V50.162h21.991v23.017h11.305V19.235H333.677z M194.441,28.336
				h16.075v44.842h11.129V28.336h16.074v-9.101h-43.277V28.336z M163.397,19.235l-17.354,53.943h11.216l3.887-13.606h17.089
				l3.798,13.606H194L176.69,19.235H163.397z M163.486,51.266l6.182-21.471h0.177l6.05,21.471H163.486z"/>
		</g>
	</g>
</g>
<g id="Layer_3">
	<g>
		<path fill="none" d="M583.983,20.829c-10.738,0-17.484,8.104-17.484,20.359v10.221c0,12.256,6.627,20.199,17.484,20.199
			c10.858,0,17.525-7.943,17.525-20.199V41.188C601.508,28.933,594.761,20.829,583.983,20.829z"/>
		<path fill="none" d="M445.685,22.066h-11.297v48.303h11.297c14.771,0,20.998-9.381,20.998-24.15
			C466.683,31.607,460.416,22.066,445.685,22.066z"/>
		<polygon fill="none" points="169.182,31.006 162.97,52.615 175.411,52.615 169.3,31.006 		"/>
		<polygon fill="#010202" points="386.524,73.363 417.501,73.363 417.501,70.369 389.797,70.369 389.797,47.057 416.105,47.057 
			416.105,44.062 389.797,44.062 389.797,22.106 417.501,22.106 417.501,19.072 386.524,19.072 		"/>
		<path fill="#010202" d="M445.685,19.072h-14.57v54.291h14.57c17.646,0,24.312-10.979,24.312-27.145
			C469.998,29.971,463.011,19.072,445.685,19.072z M445.685,70.369h-11.297V22.066h11.297c14.73,0,20.998,9.541,20.998,24.152
			C466.683,60.988,460.456,70.369,445.685,70.369z"/>
		<rect x="482.634" y="19.072" fill="#010202" width="3.273" height="54.291"/>
		<polygon fill="#010202" points="496.406,22.066 514.69,22.066 514.69,73.363 517.963,73.363 517.963,22.066 536.207,22.066 
			536.207,19.072 496.406,19.072 		"/>
		<rect x="546.706" y="19.072" fill="#010202" width="3.273" height="54.291"/>
		<path fill="#010202" d="M583.983,17.834c-13.093,0-20.719,9.301-20.719,23.593v9.74c0,14.291,7.545,23.434,20.68,23.434
			c13.174,0,20.798-9.143,20.798-23.434v-9.66C604.742,27.175,597.118,17.834,583.983,17.834z M601.508,51.408
			c0,12.256-6.667,20.199-17.525,20.199c-10.857,0-17.484-7.943-17.484-20.199V41.188c0-12.255,6.746-20.359,17.484-20.359
			c10.778,0,17.525,8.104,17.525,20.359V51.408z"/>
		<polygon fill="#010202" points="652.569,19.072 652.569,67.615 652.369,67.615 621.15,19.072 617.797,19.072 617.797,73.363 
			621.071,73.363 621.071,24.821 621.271,24.821 652.488,73.363 655.841,73.363 655.841,19.072 		"/>
	</g>
</g>
</svg>
