<?xml version="1.0" encoding="utf-8"?>
<!-- Generator: Adobe Illustrator 16.0.4, SVG Export Plug-In . SVG Version: 6.00 Build 0)  -->
<!DOCTYPE svg PUBLIC "-//W3C//DTD SVG 1.1//EN" "http://www.w3.org/Graphics/SVG/1.1/DTD/svg11.dtd">
<svg version="1.1" xmlns="http://www.w3.org/2000/svg" xmlns:xlink="http://www.w3.org/1999/xlink" x="0px" y="0px" width="616px"
	 height="76px" viewBox="0 0 616 76" enable-background="new 0 0 616 76" xml:space="preserve">
<g id="Layer_1">
	<g>
		<g>
			<path fill="#010202" d="M123.768,57.671h-0.176l-9.583-38.436h-11.394l-9.582,38.436h-0.178l-8.876-38.436H72.056l15.015,53.943
				h11.216l9.937-36.934h0.177l9.935,36.934h11.305l15.015-53.943h-11.924L123.768,57.671z M51.081,39.558
				c-0.088-9.322,7.595-13.739,7.949-14.004c-4.327-6.451-11.129-7.157-13.469-7.333c-6.05-0.354-11.216,3.446-14.131,3.446
				c-2.87,0-7.331-3.27-12.1-3.181c-6.271,0.088-12.056,3.623-15.191,9.233C-2.397,38.939,2.416,55.596,8.732,64.74
				c3.091,4.506,6.799,9.498,11.657,9.323c4.637-0.178,6.447-3.005,12.057-3.005c5.608,0,7.242,3.005,12.099,2.915
				c5.08-0.088,8.258-4.551,11.305-9.057c3.534-5.17,4.99-10.161,5.079-10.426C60.84,54.402,51.169,50.69,51.081,39.558z
				 M41.852,12.255c2.517-3.181,4.239-7.421,3.798-11.751c-3.709,0.175-8.258,2.429-10.864,5.61
				c-2.34,2.694-4.416,7.113-3.886,11.31C35.05,17.777,39.202,15.303,41.852,12.255z M267.464,18.573
				c-14.309,0-22.698,9.233-22.698,24.608v6.054c0,15.594,8.389,24.563,22.609,24.563c14.264,0,21.418-8.704,21.418-18.468v-1.018
				h-10.775c0,5.613-2.694,9.942-10.467,9.942c-7.684,0-11.481-4.773-11.481-15.021v-6.054c0-10.117,3.797-15.197,11.481-15.197
				c7.155,0,10.467,4.727,10.467,10.073h10.775v-0.575C288.794,27.011,280.757,18.573,267.464,18.573z M333.836,19.235V40.84
				h-21.991V19.235h-11.216v53.943h11.216V50.162h21.991v23.017h11.305V19.235H333.836z M163.556,19.235l-17.354,53.943h11.216
				l3.887-13.606h17.089l3.798,13.606h11.967l-17.311-53.943H163.556z M163.645,51.266l6.182-21.471h0.177l6.05,21.471H163.645z
				 M194.6,28.336h16.075v44.842h11.129V28.336h16.074v-9.101H194.6V28.336z"/>
		</g>
	</g>
</g>
<g id="Layer_2">
	<g>
		<path fill="none" d="M495.571,21.236c-10.74,0-17.485,8.104-17.485,20.36v10.218c0,12.257,6.627,20.198,17.485,20.198
			s17.523-7.941,17.523-20.198V41.597C513.095,29.341,506.349,21.236,495.571,21.236z"/>
		<path fill="none" d="M560.282,34.849c0-7.784-5.232-12.414-13.533-12.414h-14.092v24.709h14.01
			C555.091,47.144,560.282,42.475,560.282,34.849z"/>
		<path fill="none" d="M448.606,22.474h-14.131V48.46h13.053c9.34,0,14.729-4.27,14.729-12.971
			C462.257,27.304,457.267,22.474,448.606,22.474z"/>
		<path fill="#010202" d="M404.862,45.468l-6.867-1.876c-6.825-1.839-10.499-4.79-10.499-10.857c0-6.946,5.312-11.535,13.972-11.535
			c9.701,0,13.652,5.747,13.854,10.736h3.312c-0.081-7.743-6.508-13.731-17.126-13.731c-10.38,0-17.401,5.748-17.401,14.611
			c0,7.783,4.988,11.775,12.453,13.771l7.104,1.915c8.226,2.193,12.614,4.909,12.614,11.615c0,6.946-6.027,11.896-15.049,11.896
			c-11.378,0-15.369-7.023-15.568-12.016h-3.354c0.078,6.148,4.79,15.011,18.562,15.011c10.939,0,18.802-5.669,18.802-15.089
			C419.672,51.296,414.282,48.022,404.862,45.468z"/>
		<path fill="#010202" d="M448.686,19.48h-17.483v54.288h3.273V51.415h14.21c10.818,0,16.925-6.146,16.925-15.926
			C465.61,25.709,459.504,19.48,448.686,19.48z M447.528,48.46h-13.053V22.474h14.131c8.66,0,13.65,4.83,13.65,13.016
			C462.257,44.19,456.868,48.46,447.528,48.46z"/>
		<path fill="#010202" d="M495.571,18.242c-13.094,0-20.717,9.304-20.717,23.593v9.74c0,14.292,7.542,23.433,20.678,23.433
			c13.171,0,20.796-9.141,20.796-23.433v-9.66C516.328,27.585,508.703,18.242,495.571,18.242z M513.095,51.814
			c0,12.257-6.665,20.198-17.523,20.198s-17.485-7.941-17.485-20.198V41.597c0-12.256,6.745-20.36,17.485-20.36
			c10.777,0,17.523,8.104,17.523,20.36V51.814z"/>
		<path fill="#010202" d="M563.634,34.729c0-8.903-6.065-15.249-16.408-15.249h-17.841v54.288h3.272v-23.71h16.047l12.053,23.71
			h3.795l-12.455-24.348C558.524,47.862,563.634,43.233,563.634,34.729z M546.667,47.144h-14.01V22.435h14.092
			c8.301,0,13.533,4.63,13.533,12.414C560.282,42.475,555.091,47.144,546.667,47.144z"/>
		<polygon fill="#010202" points="572.772,19.48 572.772,22.474 591.056,22.474 591.056,73.769 594.331,73.769 594.331,22.474 
			612.573,22.474 612.573,19.48 		"/>
	</g>
</g>
</svg>
