<?xml version="1.0" encoding="utf-8"?>
<!-- Generator: Adobe Illustrator 16.0.4, SVG Export Plug-In . SVG Version: 6.00 Build 0)  -->
<!DOCTYPE svg PUBLIC "-//W3C//DTD SVG 1.1//EN" "http://www.w3.org/Graphics/SVG/1.1/DTD/svg11.dtd">
<svg version="1.1" xmlns="http://www.w3.org/2000/svg" xmlns:xlink="http://www.w3.org/1999/xlink" x="0px" y="0px" width="294px"
	 height="68.5px" viewBox="0 0 294 68.5" enable-background="new 0 0 294 68.5" xml:space="preserve">
<g id="SPRT">
	<g id="watch">
		<g id="EDiT" display="none">
			<g display="inline">
				<path fill="#1D1D1B" d="M351.31,64.31h-25.9V18.93h25.9v2.54h-23.17v18.35h21.99v2.5h-21.99v19.49h23.17V64.31z"/>
				<path fill="#1D1D1B" d="M374.87,18.93c14.48,0,20.32,9.11,20.32,22.69c0,13.51-5.57,22.69-20.32,22.69h-12.19V18.93H374.87z
					 M365.42,61.81h9.45c12.35,0,17.56-7.84,17.56-20.19c0-12.21-5.25-20.19-17.56-20.19h-9.45V61.81z"/>
				<path fill="#1D1D1B" d="M405.75,64.31V18.93h2.74v45.38H405.75z"/>
				<path fill="#1D1D1B" d="M432.55,64.31V21.43h-15.29v-2.5h33.27v2.5h-15.25v42.88H432.55z"/>
				<path fill="#1D1D1B" d="M459.31,64.31V18.93h2.74v45.38H459.31z"/>
				<path fill="#1D1D1B" d="M473.15,37.62c0-11.95,6.37-19.73,17.32-19.73c10.98,0,17.35,7.81,17.35,19.79v8.07
					c0,11.95-6.37,19.59-17.39,19.59c-10.98,0-17.29-7.64-17.29-19.59V37.62z M475.86,45.96c0,10.25,5.53,16.89,14.61,16.89
					c9.08,0,14.65-6.64,14.65-16.89v-8.54c0-10.25-5.65-17.02-14.65-17.02c-8.97,0-14.61,6.77-14.61,17.02V45.96z"/>
				<path fill="#1D1D1B" d="M518.74,64.31V18.93h2.8l26.1,40.58h0.16V18.93h2.74v45.38h-2.8l-26.09-40.58h-0.17v40.58H518.74z"/>
			</g>
		</g>
		<g display="none">
			<path display="inline" fill="#1D1D1B" d="M39.81,18.01c-5.11-0.38-9.44,2.85-11.86,2.85c-2.45,0-6.24-2.78-10.25-2.7
				c-5.27,0.08-10.12,3.06-12.84,7.78c-5.47,9.5-1.39,23.57,3.93,31.27c2.61,3.77,5.72,8.01,9.8,7.86
				c3.93-0.16,5.42-2.54,10.17-2.54c4.75,0,6.09,2.54,10.24,2.47c4.23-0.08,6.91-3.84,9.5-7.63c2.99-4.37,4.23-8.6,4.3-8.83
				c-0.09-0.03-8.25-3.16-8.33-12.56c-0.07-7.85,6.41-11.62,6.71-11.8C47.5,18.75,41.81,18.15,39.81,18.01z"/>
			<path display="inline" fill="#1D1D1B" d="M36.66,12.92c2.17-2.62,3.63-6.28,3.23-9.91c-3.12,0.13-6.9,2.08-9.14,4.7
				c-2.01,2.33-3.77,6.04-3.29,9.6C30.94,17.58,34.49,15.54,36.66,12.92z"/>
		</g>
		<g id="black_4_">
			<g>
				<g>
					<polygon fill="#1D1D1B" points="105.84,51.31 105.7,51.31 97.57,18.79 87.99,18.79 79.88,51.31 79.75,51.31 72.21,18.79 
						62.14,18.79 74.81,64.32 84.32,64.32 92.69,33.2 92.86,33.2 101.24,64.32 110.81,64.32 123.45,18.79 113.38,18.79 					"/>
					<path fill="#1D1D1B" d="M226.16,18.05c-12,0-19.18,7.77-19.18,20.81v5.51c0,13.18,7.14,20.71,19.15,20.71
						c12.04,0,18.04-7.34,18.04-15.54V48.7h-9.04c0,4.71-2.34,8.38-8.84,8.38c-6.54,0-9.74-4.04-9.74-12.71v-5.51
						c0-8.57,3.24-12.87,9.68-12.87c6.04,0,8.91,4,8.91,8.51h9.04v-0.47C244.18,25.16,237.44,18.05,226.16,18.05z"/>
					<path fill="#1D1D1B" d="M138.69,18.79l-14.67,45.53h9.44l3.3-11.48h14.41l3.25,11.48h10.11l-14.65-45.53H138.69z M138.77,45.83
						l5.2-18.08h0.1l5.11,18.08H138.77z"/>
					<polygon fill="#1D1D1B" points="282.28,18.79 282.28,37.07 263.65,37.07 263.65,18.79 254.22,18.79 254.22,64.32 263.65,64.32 
						263.65,44.91 282.28,44.91 282.28,64.32 291.75,64.32 291.75,18.79 					"/>
					<polygon fill="#1D1D1B" points="164.35,26.66 177.89,26.66 177.89,64.32 187.3,64.32 187.3,26.66 200.88,26.66 200.88,18.79 
						164.35,18.79 					"/>
				</g>
				<g display="none">
					<path display="inline" fill="#1D1D1B" d="M325.41,52.85c0.17,4.17,3.51,10.06,13.03,10.06c7.55,0,12.6-4.14,12.6-9.95
						c0-5.61-3.68-7.88-10.56-9.72l-5.95-1.6c-6.25-1.68-10.42-5.01-10.42-11.53c0-7.41,5.88-12.23,14.56-12.23
						c8.88,0,14.26,5.01,14.33,11.49h-2.78c-0.17-4.17-3.47-8.98-11.59-8.98c-7.24,0-11.69,3.84-11.69,9.65
						c0,5.08,3.07,7.55,8.78,9.08l5.75,1.57c7.89,2.14,12.4,4.87,12.4,12.09c0,7.88-6.58,12.63-15.74,12.63
						c-11.52,0-15.46-7.42-15.53-12.56H325.41z"/>
					<path display="inline" fill="#1D1D1B" d="M378.15,18.95c9.05,0,14.16,5.21,14.16,13.39c0,8.18-5.11,13.33-14.16,13.33h-11.89
						v18.7h-2.74V18.95H378.15z M366.25,43.2h10.92c7.81,0,12.33-3.58,12.33-10.86c0-6.85-4.18-10.89-11.42-10.89h-11.83V43.2z"/>
					<path display="inline" fill="#1D1D1B" d="M400.04,37.65c0-11.96,6.38-19.74,17.34-19.74c10.99,0,17.37,7.81,17.37,19.81v8.08
						c0,11.96-6.38,19.61-17.41,19.61c-10.99,0-17.3-7.65-17.3-19.61V37.65z M402.75,46c0,10.26,5.54,16.9,14.63,16.9
						c9.08,0,14.66-6.64,14.66-16.9v-8.55c0-10.26-5.65-17.04-14.66-17.04c-8.99,0-14.63,6.78-14.63,17.04V46z"/>
					<path display="inline" fill="#1D1D1B" d="M474.34,31.7c0,7.12-4.28,11-9.66,12.3l10.43,20.37h-3.17l-10.09-19.84h-13.42v19.84
						h-2.74V18.95h14.93C469.26,18.95,474.34,24.26,474.34,31.7z M460.14,42.09c7.05,0,11.39-3.9,11.39-10.29
						c0-6.52-4.37-10.39-11.32-10.39h-11.79v20.67H460.14z"/>
					<path display="inline" fill="#1D1D1B" d="M497.28,64.37V21.45h-15.3v-2.51h33.31v2.51h-15.27v42.92H497.28z"/>
				</g>
			</g>
			<g>
				<path fill="#1D1D1B" d="M39.77,18.02c-5.11-0.37-9.45,2.86-11.87,2.86c-2.46,0-6.24-2.78-10.26-2.7
					c-5.27,0.08-10.13,3.07-12.84,7.79c-5.48,9.51-1.4,23.59,3.93,31.3c2.61,3.77,5.72,8.02,9.81,7.87
					c3.94-0.16,5.42-2.55,10.18-2.55c4.75,0,6.09,2.55,10.25,2.47c4.24-0.08,6.92-3.84,9.51-7.64c2.99-4.37,4.23-8.6,4.3-8.83
					c-0.09-0.03-8.26-3.17-8.34-12.57c-0.07-7.86,6.41-11.64,6.71-11.82C47.47,18.77,41.77,18.17,39.77,18.02z"/>
				<path fill="#1D1D1B" d="M36.61,12.93c2.17-2.62,3.64-6.28,3.24-9.92c-3.13,0.12-6.91,2.08-9.15,4.71
					c-2.01,2.32-3.77,6.04-3.29,9.61C30.89,17.6,34.44,15.55,36.61,12.93z"/>
			</g>
		</g>
	</g>
	<g id="SPORT" display="none">
		<g display="inline">
			<g display="none">
				<polygon display="inline" fill="#1D1D1B" points="105.84,51.31 105.7,51.31 97.57,18.79 87.99,18.79 79.88,51.31 79.75,51.31 
					72.21,18.79 62.14,18.79 74.81,64.32 84.32,64.32 92.69,33.2 92.86,33.2 101.24,64.32 110.81,64.32 123.45,18.79 113.38,18.79 
									"/>
				<path display="inline" fill="#1D1D1B" d="M226.16,18.05c-12,0-19.18,7.77-19.18,20.81v5.51c0,13.18,7.14,20.71,19.15,20.71
					c12.04,0,18.04-7.34,18.04-15.54V48.7h-9.04c0,4.71-2.34,8.38-8.84,8.38c-6.54,0-9.74-4.04-9.74-12.71v-5.51
					c0-8.57,3.24-12.87,9.68-12.87c6.04,0,8.91,4,8.91,8.51h9.04v-0.47C244.18,25.16,237.44,18.05,226.16,18.05z"/>
				<path display="inline" fill="#1D1D1B" d="M138.69,18.79l-14.67,45.53h9.44l3.3-11.48h14.41l3.25,11.48h10.11l-14.65-45.53
					H138.69z M138.77,45.83l5.2-18.08h0.1l5.11,18.08H138.77z"/>
				<polygon display="inline" fill="#1D1D1B" points="282.28,18.79 282.28,37.07 263.65,37.07 263.65,18.79 254.22,18.79 
					254.22,64.32 263.65,64.32 263.65,44.91 282.28,44.91 282.28,64.32 291.75,64.32 291.75,18.79 				"/>
				<polygon display="inline" fill="#1D1D1B" points="164.35,26.66 177.89,26.66 177.89,64.32 187.3,64.32 187.3,26.66 
					200.88,26.66 200.88,18.79 164.35,18.79 				"/>
			</g>
			<g>
				<path fill="#1D1D1B" d="M325.41,52.85c0.17,4.17,3.51,10.06,13.03,10.06c7.55,0,12.6-4.14,12.6-9.95
					c0-5.61-3.68-7.88-10.56-9.72l-5.95-1.6c-6.25-1.68-10.42-5.01-10.42-11.53c0-7.41,5.88-12.23,14.56-12.23
					c8.88,0,14.26,5.01,14.33,11.49h-2.78c-0.17-4.17-3.47-8.98-11.59-8.98c-7.24,0-11.69,3.84-11.69,9.65
					c0,5.08,3.07,7.55,8.78,9.08l5.75,1.57c7.89,2.14,12.4,4.87,12.4,12.09c0,7.88-6.58,12.63-15.74,12.63
					c-11.52,0-15.46-7.42-15.53-12.56H325.41z"/>
				<path fill="#1D1D1B" d="M378.15,18.95c9.05,0,14.16,5.21,14.16,13.39c0,8.18-5.11,13.33-14.16,13.33h-11.89v18.7h-2.74V18.95
					H378.15z M366.25,43.2h10.92c7.81,0,12.33-3.58,12.33-10.86c0-6.85-4.18-10.89-11.42-10.89h-11.83V43.2z"/>
				<path fill="#1D1D1B" d="M400.04,37.65c0-11.96,6.38-19.74,17.34-19.74c10.99,0,17.37,7.81,17.37,19.81v8.08
					c0,11.96-6.38,19.61-17.41,19.61c-10.99,0-17.3-7.65-17.3-19.61V37.65z M402.75,46c0,10.26,5.54,16.9,14.63,16.9
					c9.08,0,14.66-6.64,14.66-16.9v-8.55c0-10.26-5.65-17.04-14.66-17.04c-8.99,0-14.63,6.78-14.63,17.04V46z"/>
				<path fill="#1D1D1B" d="M474.34,31.7c0,7.12-4.28,11-9.66,12.3l10.43,20.37h-3.17l-10.09-19.84h-13.42v19.84h-2.74V18.95h14.93
					C469.26,18.95,474.34,24.26,474.34,31.7z M460.14,42.09c7.05,0,11.39-3.9,11.39-10.29c0-6.52-4.37-10.39-11.32-10.39h-11.79
					v20.67H460.14z"/>
				<path fill="#1D1D1B" d="M497.28,64.37V21.45h-15.3v-2.51h33.31v2.51h-15.27v42.92H497.28z"/>
			</g>
		</g>
		<g>
			<path display="inline" fill="#1D1D1B" d="M39.77,18.02c-5.11-0.37-9.45,2.86-11.87,2.86c-2.46,0-6.24-2.78-10.26-2.7
				c-5.27,0.08-10.13,3.07-12.84,7.79c-5.48,9.51-1.4,23.59,3.93,31.3c2.61,3.77,5.72,8.02,9.81,7.87
				c3.94-0.16,5.42-2.55,10.18-2.55c4.75,0,6.09,2.55,10.25,2.47c4.24-0.08,6.92-3.84,9.51-7.64c2.99-4.37,4.23-8.6,4.3-8.83
				c-0.09-0.03-8.26-3.17-8.34-12.57c-0.07-7.86,6.41-11.64,6.71-11.82C47.47,18.77,41.77,18.17,39.77,18.02z"/>
			<path display="inline" fill="#1D1D1B" d="M36.61,12.93c2.17-2.62,3.64-6.28,3.24-9.92c-3.13,0.12-6.91,2.08-9.15,4.71
				c-2.01,2.32-3.77,6.04-3.29,9.61C30.89,17.6,34.44,15.55,36.61,12.93z"/>
		</g>
	</g>
</g>
<g id="Edition" display="none">
	<g display="inline">
		<g>
			<g>
				<path fill="#1D1D1B" d="M351.79,64.58h-25.98V19.06h25.98v2.54h-23.23v18.41h22.06v2.51h-22.06v19.55h23.23V64.58z"/>
				<path fill="#1D1D1B" d="M375.42,19.06c14.53,0,20.39,9.14,20.39,22.76c0,13.56-5.59,22.76-20.39,22.76H363.2V19.06H375.42z
					 M365.95,62.07h9.47c12.39,0,17.61-7.87,17.61-20.25c0-12.25-5.25-20.25-17.61-20.25h-9.47V62.07z"/>
				<path fill="#1D1D1B" d="M406.4,64.58V19.06h2.75v45.52H406.4z"/>
				<path fill="#1D1D1B" d="M433.28,64.58V21.57h-15.33v-2.51h33.38v2.51h-15.3v43.01H433.28z"/>
				<path fill="#1D1D1B" d="M460.13,64.58V19.06h2.74v45.52H460.13z"/>
				<path fill="#1D1D1B" d="M474.01,37.8c0-11.98,6.39-19.78,17.37-19.78c11.01,0,17.41,7.83,17.41,19.85v8.1
					c0,11.98-6.39,19.65-17.44,19.65c-11.01,0-17.34-7.67-17.34-19.65V37.8z M476.73,46.17c0,10.28,5.56,16.94,14.66,16.94
					c9.11,0,14.7-6.66,14.7-16.94V37.6c0-10.28-5.66-17.07-14.7-17.07c-9,0-14.66,6.8-14.66,17.07V46.17z"/>
				<path fill="#1D1D1B" d="M519.74,64.58V19.06h2.81l26.18,40.7h0.17v-40.7h2.74v45.52h-2.81l-26.18-40.7h-0.17v40.7H519.74z"/>
			</g>
		</g>
		<g display="none">
			<path display="inline" fill="#B25098" d="M39.33,18.13c-5.13-0.38-9.47,2.86-11.9,2.86c-2.46,0-6.25-2.78-10.28-2.71
				c-5.28,0.08-10.15,3.07-12.88,7.81c-5.49,9.53-1.4,23.64,3.94,31.36c2.62,3.78,5.73,8.04,9.83,7.88
				c3.94-0.16,5.44-2.55,10.2-2.55c4.76,0,6.11,2.55,10.27,2.47c4.24-0.08,6.93-3.85,9.53-7.65c3-4.38,4.24-8.62,4.31-8.85
				c-0.09-0.03-8.27-3.17-8.35-12.59c-0.07-7.87,6.43-11.66,6.72-11.85C47.04,18.88,41.33,18.28,39.33,18.13z"/>
			<path display="inline" fill="#B25098" d="M36.16,13.03c2.18-2.63,3.64-6.3,3.24-9.94c-3.13,0.12-6.92,2.09-9.17,4.71
				c-2.01,2.33-3.78,6.06-3.3,9.63C30.42,17.71,33.99,15.66,36.16,13.03z"/>
		</g>
		<g id="black_1_" display="none">
			<g display="inline">
				<g>
					<polygon fill="#B25098" points="105.56,51.54 105.42,51.54 97.26,18.91 87.66,18.91 79.52,51.54 79.39,51.54 71.83,18.91 
						61.72,18.91 74.44,64.59 83.97,64.59 92.37,33.37 92.54,33.37 100.94,64.59 110.54,64.59 123.23,18.91 113.12,18.91 					"/>
					<path fill="#B25098" d="M226.26,18.18c-12.05,0-19.24,7.8-19.24,20.88v5.52c0,13.22,7.16,20.78,19.21,20.78
						c12.08,0,18.1-7.36,18.1-15.59v-0.84h-9.07c0,4.72-2.34,8.4-8.87,8.4c-6.56,0-9.77-4.05-9.77-12.75v-5.52
						c0-8.6,3.25-12.92,9.71-12.92c6.06,0,8.93,4.02,8.93,8.53h9.07v-0.47C244.33,25.31,237.57,18.18,226.26,18.18z"/>
					<path fill="#B25098" d="M138.52,18.91l-14.72,45.68h9.47l3.31-11.51h14.45l3.25,11.51h10.14l-14.69-45.68H138.52z
						 M138.59,46.05l5.21-18.14h0.1l5.13,18.14H138.59z"/>
					<polygon fill="#B25098" points="282.54,18.91 282.54,37.25 263.87,37.25 263.87,18.91 254.4,18.91 254.4,64.59 263.87,64.59 
						263.87,45.12 282.54,45.12 282.54,64.59 292.04,64.59 292.04,18.91 					"/>
					<polygon fill="#B25098" points="164.25,26.81 177.83,26.81 177.83,64.59 187.28,64.59 187.28,26.81 200.89,26.81 200.89,18.91 
						164.25,18.91 					"/>
				</g>
				<g display="none">
					<path display="inline" fill="#B25098" d="M325.81,53.08c0.17,4.19,3.52,10.08,13.07,10.08c7.57,0,12.63-4.16,12.63-9.98
						c0-5.63-3.69-7.91-10.59-9.75l-5.96-1.61c-6.27-1.68-10.45-5.03-10.45-11.56c0-7.44,5.9-12.27,14.61-12.27
						c8.91,0,14.31,5.03,14.37,11.53h-2.78c-0.17-4.19-3.49-9.01-11.63-9.01c-7.27,0-11.73,3.85-11.73,9.68
						c0,5.09,3.08,7.57,8.81,9.11l5.76,1.58c7.91,2.14,12.43,4.89,12.43,12.13c0,7.91-6.6,12.67-15.78,12.67
						c-11.56,0-15.51-7.44-15.58-12.6H325.81z"/>
					<path display="inline" fill="#B25098" d="M378.71,19.07c9.08,0,14.21,5.23,14.21,13.44c0,8.21-5.12,13.37-14.21,13.37h-11.93
						v18.76h-2.75V19.07H378.71z M366.79,43.4h10.96c7.84,0,12.37-3.59,12.37-10.89c0-6.87-4.19-10.92-11.46-10.92h-11.86V43.4z"/>
					<path display="inline" fill="#B25098" d="M400.68,37.84c0-12,6.4-19.8,17.39-19.8c11.03,0,17.43,7.84,17.43,19.87v8.11
						c0,12-6.4,19.67-17.46,19.67c-11.02,0-17.36-7.67-17.36-19.67V37.84z M403.39,46.21c0,10.29,5.56,16.95,14.68,16.95
						c9.11,0,14.71-6.67,14.71-16.95v-8.58c0-10.29-5.67-17.09-14.71-17.09c-9.01,0-14.68,6.8-14.68,17.09V46.21z"/>
					<path display="inline" fill="#B25098" d="M475.2,31.87c0,7.14-4.29,11.03-9.68,12.33l10.45,20.44h-3.18l-10.12-19.9H449.2v19.9
						h-2.75V19.07h14.98C470.11,19.07,475.2,24.4,475.2,31.87z M460.96,42.29c7.07,0,11.43-3.92,11.43-10.32
						c0-6.53-4.39-10.42-11.36-10.42H449.2v20.74H460.96z"/>
					<path display="inline" fill="#B25098" d="M498.22,64.64V21.59h-15.35v-2.52h33.41v2.52h-15.31v43.05H498.22z"/>
				</g>
			</g>
			<g display="inline">
				<path fill="#B25098" d="M39.28,18.14c-5.13-0.38-9.48,2.87-11.91,2.87c-2.47,0-6.27-2.78-10.29-2.71
					C11.8,18.38,6.92,21.38,4.2,26.11c-5.5,9.54-1.4,23.66,3.95,31.4c2.62,3.78,5.74,8.04,9.84,7.89c3.95-0.16,5.44-2.56,10.21-2.56
					c4.77,0,6.11,2.56,10.28,2.47c4.25-0.08,6.94-3.85,9.54-7.66c3.01-4.39,4.24-8.63,4.32-8.86c-0.09-0.03-8.28-3.18-8.36-12.61
					c-0.07-7.88,6.43-11.67,6.73-11.86C47,18.9,41.3,18.29,39.28,18.14z"/>
				<path fill="#B25098" d="M36.12,13.04c2.18-2.63,3.65-6.3,3.24-9.94c-3.14,0.12-6.93,2.09-9.18,4.72
					c-2.01,2.33-3.78,6.06-3.3,9.64C30.38,17.72,33.94,15.67,36.12,13.04z"/>
			</g>
		</g>
	</g>
</g>
</svg>
