<?xml version="1.0" encoding="utf-8"?>
<!-- Generator: Adobe Illustrator 16.0.4, SVG Export Plug-In . SVG Version: 6.00 Build 0)  -->
<!DOCTYPE svg PUBLIC "-//W3C//DTD SVG 1.1//EN" "http://www.w3.org/Graphics/SVG/1.1/DTD/svg11.dtd">
<svg version="1.1" id="Layer_1" xmlns="http://www.w3.org/2000/svg" xmlns:xlink="http://www.w3.org/1999/xlink" x="0px" y="0px"
	 width="350px" height="76px" viewBox="0 0 350 76" enable-background="new 0 0 350 76" xml:space="preserve">
<g>
	<g>
		<path fill="#010202" d="M51.06,39.55c-0.088-9.322,7.595-13.739,7.949-14.004c-4.327-6.451-11.129-7.157-13.469-7.333
			c-6.05-0.354-11.216,3.446-14.131,3.446c-2.87,0-7.331-3.27-12.1-3.181c-6.271,0.088-12.056,3.623-15.191,9.233
			c-6.536,11.222-1.723,27.878,4.593,37.022c3.091,4.506,6.799,9.498,11.657,9.323c4.637-0.178,6.447-3.005,12.057-3.005
			c5.608,0,7.242,3.005,12.099,2.915c5.08-0.088,8.258-4.551,11.305-9.057c3.534-5.17,4.99-10.161,5.079-10.426
			C60.819,54.395,51.149,50.683,51.06,39.55z M123.747,57.663h-0.176l-9.583-38.436h-11.394l-9.582,38.436h-0.178l-8.876-38.436
			H72.036l15.015,53.943h11.216l9.937-36.934h0.177l9.935,36.934h11.305l15.015-53.943h-11.924L123.747,57.663z M41.831,12.247
			c2.517-3.181,4.239-7.421,3.798-11.751c-3.709,0.175-8.258,2.429-10.864,5.61c-2.34,2.694-4.416,7.113-3.886,11.31
			C35.03,17.77,39.181,15.295,41.831,12.247z M333.815,19.228v21.604h-21.991V19.228h-11.216v53.943h11.216V50.154h21.991v23.017
			h11.305V19.228H333.815z M163.535,19.228l-17.354,53.943h11.216l3.887-13.606h17.089l3.798,13.606h11.967l-17.311-53.943H163.535z
			 M163.624,51.258l6.182-21.471h0.177l6.05,21.471H163.624z M267.444,18.565c-14.309,0-22.698,9.233-22.698,24.608v6.054
			c0,15.594,8.389,24.563,22.609,24.563c14.264,0,21.418-8.704,21.418-18.468v-1.018h-10.775c0,5.613-2.694,9.942-10.467,9.942
			c-7.684,0-11.481-4.773-11.481-15.021v-6.054c0-10.117,3.797-15.197,11.481-15.197c7.155,0,10.467,4.727,10.467,10.073h10.775
			v-0.575C288.773,27.003,280.736,18.565,267.444,18.565z M194.58,28.329h16.075v44.842h11.129V28.329h16.074v-9.101H194.58V28.329z
			"/>
	</g>
</g>
</svg>
