<?xml version="1.0" encoding="utf-8"?>
<!-- Generator: Adobe Illustrator 18.0.0, SVG Export Plug-In . SVG Version: 6.00 Build 0)  -->
<!DOCTYPE svg PUBLIC "-//W3C//DTD SVG 1.1//EN" "http://www.w3.org/Graphics/SVG/1.1/DTD/svg11.dtd">
<svg version="1.1" id="Layer_1" xmlns="http://www.w3.org/2000/svg" xmlns:xlink="http://www.w3.org/1999/xlink" x="0px" y="0px"
	 viewBox="137 291 652.5 246" enable-background="new 137 291 652.5 246" xml:space="preserve">
<g>
	<g>
		<path fill="#FFFFFF" d="M262.5,301.2c0-2,0.1-3.6,0.2-5c0.1-1.4,0.3-2.5,0.6-3.3c0.3-0.8,0.6-1.4,1.1-1.6c0.4-0.3,1-0.3,1.6-0.2
			c1.1,0.4,1.9,4.5,2.5,12.2c0.5,7.8,0.7,16.5,0.5,26.2s-0.8,17.2-1.8,22.4c-2.5,13.1-6.3,26.8-11.4,41.1
			c-5.1,14.3-9.9,24.7-14.5,31.2c-3.3,4.8-4.9,7.7-4.9,8.8c0,0.5-0.4,1.3-1.2,2.4c-0.8,1.1-1.7,2.2-2.7,3.2
			c-2.5,2.5-6.7,3.3-12.5,2.5s-10.3-2.9-13.2-6.2c-3-3.3-5.2-10.8-6.7-22.5s-2.2-26.4-1.9-44.1c0.3-18.6-0.5-27.9-2.3-27.9
			c-1.3,0-3.3,4-6.1,12c-1,2.7-2.2,5.4-3.5,8.1c-1.3,2.7-2.5,4.6-3.4,5.7c-0.9,1.1-2.2,3.3-3.7,6.5c-1.5,3.2-2.9,6.6-4,10.1
			c-2.9,8.5-5.4,14.6-7.5,18.4s-3.2,6.9-3.4,9.5c-0.3,3.7-2.5,9.5-6.6,17.5c-4.1,8-7.1,12.4-9.1,13.2c-4.4,1.6-6.6,0.6-6.7-3.2
			c-0.1-4.2,2.7-13.5,8.3-27.8c7.1-18.1,11.9-29.8,14.3-35.2c12.3-26.2,21.5-47.1,27.7-62.8c2-5.2,3.6-9,4.8-11.6s2.3-4.6,3.3-5.9
			c1-1.4,1.9-2,2.6-1.9c0.7,0.1,1.7,0.7,2.8,1.8c2.1,2.1,3.7,23.5,4.8,64.1c0.5,21.9,1.2,38,2,48.3c0.8,10.4,1.8,16.7,3,18.9
			l3.5,6.4l5.2-6.3c6.1-7.6,12.2-18.9,18.2-33.9c6.1-15,11-31,14.8-47.8C260.6,328.2,262.5,313.6,262.5,301.2z"/>
		<path fill="#FFFFFF" d="M320.1,379.8c0.3-1.8,0.9-3.7,1.8-5.5c0.9-1.8,1.8-3.4,2.8-4.7c1-1.3,1.8-2,2.4-2c2.2,0,3.5,1.5,3.8,4.6
			c0.4,3.1-0.1,8.3-1.5,15.8c-2,10.2-3.3,18.2-4,24c-0.9,6.8-4,13.3-9.4,19.4c-5.4,6.1-10.9,9.4-16.5,9.8
			c-5.5,0.4-10.7-1.5-15.5-5.7c-4.8-4.2-7.2-9-7.3-14.4c-0.2-4.8-0.4-10.4-0.7-16.9c-0.2-3.5,0.4-7.8,1.8-12.9
			c1.4-5.1,3-9.4,4.9-12.8c1.9-3.4,3.4-4.8,4.6-4.1c1.6,1,2.4,3.6,2.3,7.6c-0.1,4.1-1,7-2.8,8.7c-0.7,0.8-1.5,2.7-2.3,5.7
			s-1.4,6.4-1.8,10c-0.5,5.2-0.6,9-0.1,11.6s1.7,5.1,3.6,7.6c2.3,2.8,4,4.4,5.2,4.7c1.2,0.4,3.1-0.1,5.7-1.5
			c3.4-1.9,6.9-6.1,10.5-12.7c3.6-6.6,6-13.3,7.2-20.2c0.5-2.7,1.2-5,2.1-6.9c0.9-2,1.6-2.9,2.2-2.9c0.8,0,1.3-0.2,1.5-0.7
			c0.2-0.5,0.1-1.1-0.4-1.8C319.8,382.9,319.8,381.6,320.1,379.8z"/>
		<path fill="#FFFFFF" d="M373.5,322c1.2-2.3,2.7-3.8,4.3-4.5c1.6-0.7,3-0.4,4.2,0.8s1.8,3,1.8,5.6c0,2.1,0.3,3.8,1,5
			c0.7,1.2,1.5,1.7,2.5,1.6c1-0.2,2-1,2.9-2.6c0.5-0.7,1.3-1.3,2.4-1.7c1.1-0.4,2.4-0.6,3.7-0.6c3.1,0.2,8.8-1.1,17.1-3.8
			c7-2.2,12.4-2.7,16.1-1.5c2.6,0.8,2.6,2.1,0.1,4.1c-0.5,0.3-1,0.7-1.6,1.1c-3,1.8-4.9,2.7-5.8,2.6c-0.9-0.1-4,1.2-9.3,3.9
			c-7.3,3.8-15.1,5.9-23.2,6.3c-0.9,0.1-1.7,0.8-2.3,2.1c-0.6,1.3-0.9,2.9-0.9,4.7c0,1.8-0.3,3.4-0.8,4.7c-0.5,1.3-1.1,1.9-1.8,1.9
			c-0.6,0-1.2,0.7-1.6,2.1s-0.7,3.1-0.7,5.2c0,2-0.5,5.7-1.6,11.3c-1.1,5.6-2.5,11.3-4.1,17.1c-6.6,24.1-10.5,42-11.6,53.4
			c-0.3,3-0.8,5.2-1.5,6.5c-0.7,1.3-1.5,1.6-2.4,0.9s-1.9-2.4-2.8-5c-2.1-5.4-3-11.4-2.6-18.2c0.4-6.7,1.8-11.3,4.2-13.8
			c2.8-2.8,3.3-5.1,1.5-7c-1.8-1.8-2.1-4.6-0.6-8.3c3.9-9.9,6.1-16.7,6.6-20.4c0.4-2.7,1.3-7.4,2.7-14.3c0.9-4.6,1.2-7.4,0.9-8.4
			c-0.3-1-1.6-1.1-3.9-0.4c-13.4,4.1-22.2,6.4-26.4,7.1c-4.3,0.7-6.7,0.2-7.4-1.5c-0.5-1.3,0.2-3,2-5c1.8-2,3.9-3.7,6.4-4.9
			c2.5-1.2,4.4-1.4,5.6-0.5c0.6,0.4,1.5,0.3,2.6-0.2c1.1-0.5,2.1-1.3,2.9-2.3s2-2,3.6-2.8c1.6-0.8,2.9-1.2,4.1-1.2
			c1.6,0,3.5-0.8,5.9-2.5c2.4-1.7,4.3-3.5,5.7-5.6c1.4-2,1.8-3.5,1-4.3c-0.4-0.4-0.5-1.2-0.3-2.6C372.4,324.7,372.8,323.4,373.5,322
			z"/>
		<path fill="#FFFFFF" d="M404.2,361.5c2.9-2.1,5.3-2.6,7.1-1.5c1.9,1.1,3.4,3.9,4.5,8.4l2.2,9.4l6.9-8.2c2.7-3.1,5.1-5.1,7.1-6
			c2-0.9,4.5-0.9,7.6-0.1c4.6,1.1,8.3,3.6,11,7.5c2.4,3.6,2.6,6.3,0.5,8.2c-0.2,0.2-0.3,0.4-0.5,0.5c-0.9,0.6-2.3,1-4,1.2
			c-1.8,0.2-3.4,0.1-4.9-0.4c-3.7-0.9-7.6,1.6-11.9,7.6c-4.3,6-8.2,14.8-11.8,26.4c-3,9.4-6,15.7-8.8,19c-2.9,3.3-6.2,4.1-10.1,2.6
			c-2-0.9-3.2-2.4-3.6-4.3c-0.4-2-0.1-6.2,0.6-12.9c1.2-10,2.4-21.7,3.5-35.2c0.4-5.6,1.1-10.6,2-14.8
			C402.6,364.6,403.4,362.2,404.2,361.5z"/>
		<path fill="#FFFFFF" d="M464.5,381.5c3.4-5,6.2-8,8.4-9c2.2-1,4.9-0.5,8,1.6c1.5,0.9,2,2.7,1.6,5.2c-0.4,2.5-2,7.2-4.7,14.1
			c-5.5,13.6-7.8,22.5-6.9,26.6c0.2,1,0.7,1.5,1.4,1.5c0.4,0,1.2-0.4,2.4-1.3c1.2-0.9,2.4-1.9,3.6-3.1c2.1-2.1,3.4-3,4-2.8
			c0.5,0.3,1,2.1,1.4,5.3c0.5,4.1-0.5,7.6-2.9,10.5c-2.4,3-5.5,4.5-9.3,4.5c-2.7,0-5.2-1.3-7.3-3.8c-2.1-2.5-3.7-5.8-4.7-9.9
			c-1-4.1-1.6-8.4-1.8-13.1c-0.2-4.6,0.4-9.4,1.6-14.1C460.3,389,462.1,384.9,464.5,381.5z M489.2,333.4c0-2.2,0.5-3.3,1.5-3.4
			c1.1-0.1,4.1,1.1,9,3.6c3.7,2,6.2,4.5,7.5,7.5c0.5,2.6-0.2,4-2.3,4.3c-2.4,0-5.6-1.5-9.7-4.6C491.2,337.9,489.2,335.4,489.2,333.4
			z"/>
		<path fill="#FFFFFF" d="M556.2,323.8c3.1-1.2,5.6-1.7,7.4-1.3c1.8,0.4,3.8,1.9,6.1,4.5c2.8,3,3.6,8,2.3,14.8
			c-1.3,6.8-3.9,12.3-8,16.3c-3,2.9-4.8,4.1-5.4,3.8c-0.6-0.5-0.7-3.8-0.4-9.8c0.3-4.5,0-6.7-0.8-6.4c-0.1,0-0.2,0-0.2,0.1
			c-1,0.9-3.7,8.7-8.1,23.3c-4.4,14.6-6.6,23-6.6,25.2c0,2.3,5,1.4,15.1-2.7c4.2-1.7,8.8-3.3,13.8-4.6c5-1.4,8.9-2.2,11.8-2.5
			c2.9-0.2,5.5-0.7,8-1.4c2.4-0.7,3.9-1.4,4.5-2.1c0.9-1.1,1.5-0.9,1.9,0.5c0.1,0.5,0.1,1.1,0.1,1.8c0,3.3-1.3,4.4-4,3.4
			c-1-0.4-1.9-0.5-2.7-0.3c-0.8,0.2-1.2,0.6-1.2,1.2c0,1.2-7.5,5.5-22.5,12.9c-15,7.5-23.2,11-24.7,10.6c-0.6-0.2-1.3,1.3-2.2,4.4
			c-0.8,3.1-1.6,7.4-2.5,12.8c-0.8,5.5-1.5,11.5-2.1,18.2c-0.9,11.2-2.9,22.1-5.9,32.5c-3,10.4-6.7,19.2-11.2,26.4
			c-1.6,2.7-3.1,5.7-4.7,9.1c-0.6,1.5-2.1,3.7-4.3,6.6c-2.3,2.9-4.6,5.7-7,8.3c-3.5,3.7-6.2,6-8.1,7c-1.9,1-3.7,1-5.4,0.1
			c-5-2.9-5.3-6.6-0.8-11.1c8.1-8.2,16.2-20.9,24.1-38.2c1-2.3,2.1-5.1,3.2-8.6c1.1-3.5,2.2-7.1,3.2-11c1-3.9,1.9-7.9,2.8-12
			c0.9-4.1,1.6-8,2.2-11.7c0.6-3.7,1-7,1.3-10c0.3-2.9,0.3-5.3,0.2-7c-0.2-1.8-0.5-2.6-1.2-2.6c-1.4,0-7.6,3.2-18.5,9.7
			c-10.9,6.5-16.8,8.7-17.5,6.6c-0.2-0.9-0.7-1.5-1.5-1.8c-0.7-0.3-1.5-0.2-2.3,0.3c-0.8,0.5-1.3,0.6-1.6,0.2
			c-0.3-0.4-0.2-1.1,0.2-2.1c0.3-1,2.8-3.4,7.5-7.1c4.7-3.7,10.2-7.7,16.4-11.9c5.6-3.8,9.8-6.7,12.4-8.6c2.7-1.9,4.9-3.8,6.6-5.6
			c1.8-1.8,2.8-3.4,3.2-4.6c0.4-1.2,0.5-2.9,0.5-5c0-6.1,1.6-14.6,4.9-25.5c3.2-10.9,7-20.9,11.3-29.8
			C550,329.9,553.5,324.9,556.2,323.8z"/>
		<path fill="#FFFFFF" d="M606,432.5c2-3.8,4.6-5.7,8-5.6s6.7,2.2,9.8,6.2c1.4,1.7,2.1,3.1,1.9,4.3s-1.1,2.7-2.9,4.6
			c-2.6,2.8-5,4.3-7.2,4.5c-2.2,0.2-5-1-8.3-3.4c-2.3-1.6-3.5-3-3.6-4.2C603.6,437.7,604.4,435.6,606,432.5z"/>
		<path fill="#FFFFFF" d="M648,381.5c3.4-5,6.2-8,8.4-9c2.2-1,4.9-0.5,8,1.6c1.5,0.9,2,2.7,1.6,5.2c-0.4,2.5-2,7.2-4.7,14.1
			c-5.5,13.6-7.8,22.5-6.9,26.6c0.2,1,0.7,1.5,1.4,1.5c0.4,0,1.2-0.4,2.4-1.3c1.2-0.9,2.4-1.9,3.6-3.1c2.1-2.1,3.4-3,4-2.8
			c0.5,0.3,1,2.1,1.4,5.3c0.5,4.1-0.5,7.6-2.9,10.5c-2.4,3-5.5,4.5-9.3,4.5c-2.7,0-5.2-1.3-7.3-3.8c-2.1-2.5-3.7-5.8-4.7-9.9
			c-1-4.1-1.6-8.4-1.8-13.1c-0.2-4.6,0.4-9.4,1.6-14.1C643.8,389,645.6,384.9,648,381.5z M672.7,333.4c0-2.2,0.5-3.3,1.5-3.4
			c1.1-0.1,4.1,1.1,9,3.6c3.7,2,6.2,4.5,7.5,7.5c0.5,2.6-0.2,4-2.3,4.3c-2.4,0-5.6-1.5-9.7-4.6C674.7,337.9,672.7,335.4,672.7,333.4
			z"/>
		<path fill="#FFFFFF" d="M711.8,359.9c2.1-1.6,4.3-2.8,6.5-3.7c2.2-0.9,3.8-1.2,4.9-0.8c2.4,1,5.7,2,10,3c3.6,0.9,6.8,3.3,9.5,7.1
			c2.7,3.8,4.7,8.3,6,13.3c1.2,5,1.7,10.5,1.3,16.3c-0.4,5.8-1.6,11-3.8,15.6c-2.1,4.5-5.9,9.5-11.4,15.2
			c-5.5,5.7-10.5,9.7-15.1,12.1c-4.3,2.3-8.9,3.6-13.9,3.9c-5,0.3-9.4-0.4-13.1-2.1c-3.8-1.7-6.1-4.1-6.9-7.2l-1.6-5.7l-3.9,6.6
			l-3.9,6.7l-0.1-7.1c-0.1-5.2,1.2-12.7,3.9-22.5c2.7-9.8,5.6-17.6,8.7-23.6c3.3-6.1,6.6-11.1,9.9-15
			C702.1,368.2,706.4,364.1,711.8,359.9z M734.1,375.2c-1.5-2.7-3.4-4.4-5.9-5c-2.4-0.6-4.9-0.2-7.4,1.4c-2.5,1.6-4.5,4-6.1,7.3
			c-1.1,2.4-2.5,4.9-4.3,7.6c-1.8,2.6-3.4,4.5-4.7,5.7c-5.3,4.8-9.1,11.5-11.4,20.3c-2.1,7.8-2,13.3,0.2,16.5c1,1.4,2.3,2.1,4,2.1
			c2.7,0,6.2-1.1,10.5-3.2c4.4-2.1,6.6-3.8,6.6-5c0-0.5,0.4-0.9,1.2-1.1c0.8-0.2,1.7,0,2.8,0.4c1.4,0.5,2.4,0.5,3-0.1
			c0.6-0.6,0.9-1.9,0.9-3.8c0-1.4,0.3-2.8,1-4c0.7-1.3,1.5-2.1,2.4-2.5c1.2-0.5,2.5-2.3,3.8-5.6c1.2-3.3,2.2-6.9,2.9-11
			c0.7-4,1.2-7.9,1.3-11.8C735.3,379.5,735,376.8,734.1,375.2z"/>
	</g>
	<g>
		<path fill="#FFFFFF" d="M760.8,296.6c1.9-0.2,3.7-0.3,5.3-0.4c0.5,0,0.9,0,1.2,0c0.3,0,0.5,0,0.7,0.1c0.2,0,0.3,0.1,0.3,0.2
			c0,0.1,0,0.2,0,0.3c-0.1,0.2-0.3,0.3-0.6,0.5c-0.3,0.1-0.7,0.2-1,0.3c-1.8,0.1-3.6,0.3-5.2,0.6c-1.6,0.3-2.5,0.6-2.7,0.8
			c-0.2,0.3-0.3,0.3-0.3-0.1c0-0.3-0.1-0.4-0.3-0.2c-0.1,0.1-0.2,0.2-0.4,0.3c-0.2,0.2-0.4,0.3-0.6,0.4s-0.4,0.1-0.5,0
			c-0.1-0.1-0.3-0.1-0.5,0c-0.2,0.1-0.4,0.1-0.6,0.3c-0.4,0.3-0.6,0.4-0.6,0.3c0,0-0.1,0-0.2,0c-0.1,0-0.4,0.1-0.6,0.1
			s-0.6,0.2-0.9,0.3c-0.5,0.2-1,0.3-1.4,0.4c-0.4,0.1-0.7,0.1-0.8,0c-0.2-0.1-0.4,0.1-0.6,0.8c-0.2,0.7-0.4,1.7-0.5,3.1
			c-0.1,0.6-0.2,1.2-0.3,1.9s-0.3,1.2-0.5,1.6c-0.4,0.9-0.7,1.9-0.9,2.9c-0.1,0.8-0.3,2.4-0.5,4.8c-0.2,2.4-0.4,4.4-0.5,6.1
			c0,0.3-0.1,0.5-0.2,0.6c-0.1,0.1-0.4,0.1-0.7,0c-0.4-0.1-0.7-0.5-0.9-1.2s-0.2-1.4,0-2.2c0.1-0.3,0.2-1.4,0.3-3.2
			c0.1-1.8,0.2-2.9,0.2-3.4c0-0.4,0.2-1.5,0.6-3.3c0.4-1.8,0.7-3.2,1-4c0.1-0.4,0.1-0.6-0.1-0.6c0,0-0.1,0-0.1,0.1
			c-0.3,0.2-0.5,0-0.5-0.5c0-0.3,0-0.7,0-1.2c0-0.5,0-0.6-0.2-0.5c0,0-0.1,0.1-0.1,0.2c-0.1,0.1-0.3,0.3-0.6,0.4
			c-0.3,0.2-0.7,0.3-1,0.4c-0.9,0.2-1.5,0.5-2,0.9c-0.4,0.4-1.3,0.8-2.6,1.3c-1.3,0.5-2,0.9-2.2,1.1c-0.2,0.2-0.5,0.4-0.8,0.6
			c-0.3,0.2-0.7,0.3-1,0.3s-0.7,0-1,0c-0.3,0-0.6-0.1-0.8-0.3c-0.2-0.2-0.3-0.4-0.3-0.6c0-0.3,0.2-0.6,0.7-0.9
			c0.5-0.3,1.2-0.7,2.2-1.1c0.8-0.3,1.5-0.7,2.1-1s0.9-0.5,1-0.6c0-0.1,0.1-0.2,0.3-0.2c0.1-0.1,0.3-0.1,0.4-0.1
			c0.3,0,0.9-0.2,1.8-0.6c0.3-0.2,0.7-0.3,1-0.4c0.3-0.1,0.5-0.1,0.6,0c0.1,0.1,0.2,0,0.4,0c0.2-0.1,0.3-0.2,0.5-0.4
			c0.1-0.2,0.4-0.3,0.7-0.5c0.3-0.1,0.6-0.2,0.8-0.2c0.7,0,1.2-0.4,1.6-1.2c0.4-0.8,0.8-1.3,1.1-1.5c0.3-0.2,0.6,0,0.9,0.4
			c0.2,0.3,0.5,0.5,0.7,0.5c0.4,0,1.6-0.2,3.6-0.8c0.2-0.1,0.5-0.1,0.8-0.2c0.7-0.2,1.6-0.4,2.7-0.6
			C759.1,296.8,760,296.7,760.8,296.6z M769.1,296.1c0-0.1,0-0.2,0.1-0.3c0.1-0.1,0.2-0.1,0.3-0.1c0.1,0,0.2,0.1,0.3,0.2
			c0.1,0.1,0.1,0.3,0.1,0.5s0,0.3-0.1,0.4s-0.2,0.1-0.3,0C769.3,296.6,769.1,296.4,769.1,296.1z"/>
		<path fill="#FFFFFF" d="M781.1,300.5c0.6-1.2,1.2-2.3,1.7-3.1c0.5-0.9,0.8-1.3,0.9-1.3c0.1,0,0.2,0.1,0.4,0.2s0.3,0.3,0.5,0.5
			c0.3,0.3,0.3,0.9,0.2,1.7c-0.1,0.8-0.4,2.1-0.9,3.7c-0.3,0.8-0.5,1.9-0.8,3.1c-0.3,1.2-0.4,2.2-0.5,2.8c-0.1,0.9-0.3,2.1-0.7,3.7
			c-0.4,1.6-0.5,3.7-0.3,6.2c0.1,1,0.1,1.9,0.1,2.7s-0.1,1.1-0.2,1.1c-0.1,0-0.3-0.2-0.6-0.6c-0.3-0.4-0.5-0.9-0.8-1.4
			c-0.4-0.9-0.7-1.6-0.8-2.3c-0.1-0.6,0-1.7,0.1-3.3c0.2-2.4,0.5-4.5,0.9-6.4c0.4-1.8,0.5-2.9,0.4-3.1c-0.1-0.1-0.2,0.1-0.4,0.7
			c0,0,0,0.1,0,0.1c-0.2,0.5-0.4,1.1-0.7,1.7c-0.3,0.6-0.6,1.1-0.9,1.5c-0.3,0.4-0.5,0.6-0.6,0.5c-0.1-0.1-0.2,0-0.3,0.1
			c-0.1,0.1-0.2,0.4-0.4,0.6c-0.1,0.4-0.3,0.7-0.6,0.8c-0.3,0.1-0.7,0.2-1.3,0.2c-0.6,0-1.1-0.1-1.4-0.3c-0.3-0.2-0.6-0.5-1-1.1
			l-0.8-1.3l-1.1,1.8c-0.8,1.2-1.1,1.9-1.1,2.1c0,0.3-0.4,1.3-1.3,3.1c-0.8,1.8-1.8,3.6-2.8,5.6c-1.4,2.6-2.7,3.6-3.8,2.9
			c-0.3-0.2-0.4-0.3-0.3-0.5c0-0.2,0.3-0.6,0.7-1.1c0.6-0.8,1.6-2.5,2.8-4.9c0.5-1,1-1.9,1.4-2.6c0.4-0.7,0.7-1.1,0.8-1.2
			c0.2-0.1,0.3-0.3,0.3-0.6s0.7-1.9,2.2-4.9c1.4-3,2.5-5.2,3.2-6.8c0.5-1.1,0.9-1.8,1.3-2.1c0.4-0.2,0.8-0.1,1.2,0.4
			c0.2,0.3,0.3,0.8,0.2,1.5c-0.1,0.7-0.4,1.3-0.7,1.8c-0.2,0.3-0.4,0.9-0.5,2s-0.2,2.1-0.2,3.1c0,1,0.1,1.6,0.3,1.7
			c0.3,0.2,0.7,0,1.3-0.4c0.6-0.4,0.9-0.9,0.9-1.2c0-0.1,0.1-0.3,0.3-0.6c0.2-0.3,0.4-0.7,0.6-1
			C778.6,305.3,779.6,303.5,781.1,300.5z"/>
	</g>
</g>
</svg>
