<?xml version="1.0" encoding="utf-8"?>
<!-- Generator: Adobe Illustrator 18.0.0, SVG Export Plug-In . SVG Version: 6.00 Build 0)  -->
<!DOCTYPE svg PUBLIC "-//W3C//DTD SVG 1.1//EN" "http://www.w3.org/Graphics/SVG/1.1/DTD/svg11.dtd">
<svg version="1.1" id="Layer_1" xmlns="http://www.w3.org/2000/svg" xmlns:xlink="http://www.w3.org/1999/xlink" x="0px" y="0px"
	 viewBox="8 367 579.4 215.4" enable-background="new 8 367 579.4 215.4" xml:space="preserve">
<path fill="#282828" d="M7.9,446c0-16.7,0-30.8,0-42.8h39.4V421h0.5c9.4-13.3,26.4-20.7,38.3-20.7c27.8,0,51.3,24.3,51.3,64.9
	c0,46.4-28,68.3-56.3,68.3c-15.3,0-27.4-6.3-33.1-14.5h-0.5v63.4H8V446H7.9z M52.1,476c0,3.1,0.3,5.7,0.8,8.3
	c2.6,10.7,11.8,18.9,23.2,18.9c17.2,0,27.4-14.4,27.4-36c0-20.3-9.1-35.7-26.9-35.7c-11.1,0-21,8.3-23.7,20.1
	c-0.5,2.2-0.8,4.6-0.8,7V476z"/>
<path fill="#282828" d="M139.3,368.8h39.6v161.9h-39.6V368.8z"/>
<path fill="#282828" d="M292.1,500c0,12.1,0,23.5,0,30.8h-38.3v-12.8H253c-8.3,10.2-22.4,15.6-34.2,15.6
	c-25.8,0-38.2-18.7-38.2-39.1c0-33.1,26.6-48.9,71.7-48.9V444c0-7.1-3.6-16.5-23.2-16.4c-8.8,0-16.2,1.4-28.9,7.7l-6.3-29.2
	c15.5-7.1,27.8-9.1,42.4-9.1c42.5,0,55.8,27.8,55.8,58.1V500z M253.7,470.6c-20.9,0-37,4.9-37,20.1c0,10.2,6.8,13.6,15.6,13.6
	c9.6,0,17.9-6.5,20.6-14.5c0.5-2.2,0.8-4.5,0.8-6.8V470.6z"/>
<path fill="#282828" d="M301.2,498c8,3.7,21.3,6.2,30.6,6.2c12.1,0,17-4.5,17-8.8c0-6.8-3.9-9.9-18.6-14.8
	c-26.6-8.8-36.8-23.2-36.5-38.3c0-24,20.3-43.3,52-43.3c9.6,0,18.6,1.9,32.8,4.5l-6.3,29.2c-13.1-3.9-16.9-4.6-25.2-4.6
	c-9.6,0-15.2,3.9-15.2,10.1c0,6.3,4.9,9.4,20.6,14.8c24.3,8.3,34.2,20.9,34.5,39.4c0,24-18.6,41.4-55,41.4c-13.3,0-27.4-2.5-37-6.3
	L301.2,498z"/>
<path fill="#282828" d="M432.9,368.8v34.5h27.7l-6.3,29.2h-21.3v46.2c0,15.3,3.9,22.4,14.1,22.4c2.3,0,3.7-0.3,7.3-1.1l6.3,29.2
	c-4.9,1.9-14.7,4.2-25.5,4.2c-12.8,0-23.5-4.5-30-11c-7.3-7.6-11-19.8-11-37.9v-52.1h-13.9v-29.2h13.9v-34.5L432.9,368.8
	L432.9,368.8z"/>
<path fill="#282828" d="M550.4,527.3c-7,3.4-20.4,6-35.4,6c-41.3,0-66-26.9-66-66.6c0-37.3,24-66.3,71.4-66.3
	c10.5,0,22,1.9,30.3,4.9l-6.2,29.5c-4.8-2.2-11.8-3.9-22.1-3.9c-20.9,0-34.5,14.8-34.2,35.7c0,23.2,15.6,35.7,34.9,35.7
	c9.4,0,16.7-1.5,22.7-4.2L550.4,527.3z"/>
<g>
	<path fill="#282828" d="M551.7,371h-5.6v-4h16.1v4h-5.7v16.9h-4.8L551.7,371L551.7,371z"/>
	<path fill="#282828" d="M582.1,380c-0.2-2.5-0.2-5.6-0.2-8.5h-0.2c-0.6,2.6-1.5,5.6-2.3,8l-2.5,8.2h-3.7l-2.2-8
		c-0.6-2.5-1.4-5.4-1.9-8.2l0,0c-0.2,2.8-0.2,6-0.3,8.7l-0.3,7.9h-4.3l1.4-20.9h6.3l2,7c0.6,2.5,1.2,4.9,1.7,7.4h0.2
		c0.6-2.5,1.2-5.1,2-7.4l2.2-7h6.2l1.1,20.9h-4.6L582.1,380z"/>
</g>
</svg>
