<?xml version="1.0" encoding="utf-8"?>
<!-- Generator: Adobe Illustrator 18.0.0, SVG Export Plug-In . SVG Version: 6.00 Build 0)  -->
<!DOCTYPE svg PUBLIC "-//W3C//DTD SVG 1.1//EN" "http://www.w3.org/Graphics/SVG/1.1/DTD/svg11.dtd">
<svg version="1.1" id="Layer_1" xmlns="http://www.w3.org/2000/svg" xmlns:xlink="http://www.w3.org/1999/xlink" x="0px" y="0px"
	 viewBox="0 0 200 200" enable-background="new 0 0 200 200" xml:space="preserve">
<g>
	<path fill="#414042" d="M100.8,58h-0.2L80.9,74.2l-5.7-7.1l27-22h7.9v109.1h-9.2V58z"/>
	<path fill="#414042" d="M150.1,140.5c1.5,2.9,3.6,5,6.5,6.5c2.8,1.5,5.9,2.3,9,2.3c1.5,0,2.9-0.2,4.4-0.7c1.5-0.5,2.8-1.1,3.9-2
		c1.2-0.8,2.1-1.9,2.8-3.1c0.7-1.2,1.1-2.6,1.1-4.1c0-2.5-0.8-4.3-2.4-5.5c-1.6-1.2-3.5-2.2-5.8-2.9c-2.3-0.7-4.9-1.3-7.6-1.8
		c-2.8-0.5-5.3-1.3-7.6-2.3c-2.3-1-4.3-2.5-5.8-4.3c-1.6-1.8-2.4-4.5-2.4-7.9c0-2.6,0.5-4.9,1.6-6.8c1.1-1.9,2.5-3.5,4.2-4.8
		s3.7-2.2,5.8-2.8c2.2-0.6,4.4-0.9,6.6-0.9c4.4,0,8.2,0.8,11.4,2.4c3.2,1.6,5.7,4.2,7.5,7.6l-6.2,3.7c-1.3-2.5-2.9-4.3-4.9-5.6
		s-4.5-1.9-7.7-1.9c-1.2,0-2.5,0.2-3.9,0.6c-1.3,0.4-2.6,0.9-3.6,1.6c-1.1,0.7-2,1.6-2.7,2.7c-0.7,1.1-1.1,2.3-1.1,3.7
		c0,2.4,0.8,4.2,2.4,5.3c1.6,1.2,3.5,2.1,5.8,2.7c2.3,0.7,4.9,1.2,7.6,1.7c2.8,0.5,5.3,1.2,7.6,2.3c2.3,1,4.3,2.5,5.8,4.5
		c1.6,2,2.4,4.8,2.4,8.4c0,2.8-0.5,5.2-1.6,7.2c-1,2-2.5,3.8-4.3,5.1c-1.8,1.4-3.9,2.4-6.2,3.1c-2.3,0.7-4.7,1-7.3,1
		c-4.6,0-8.8-0.9-12.7-2.7c-3.8-1.8-6.8-4.5-8.8-8.2L150.1,140.5z"/>
</g>
<g>
	<path fill="#414042" d="M49.3,96.6l-27.2,12.6l27.2,12.6v3l-30.4-14.2v-2.9l30.4-14.2V96.6z"/>
</g>
<g>
	<path fill="#414042" d="M128.2,42l5.8-1.9l0.6,1.9l-5.8,1.9l3.6,4.9l-1.5,1.2l-3.8-5l-3.6,5l-1.6-1.2l3.6-4.9l-5.8-2l0.6-1.8
		l5.9,1.9v-6.1h1.9V42z"/>
</g>
</svg>
