<?xml version="1.0" encoding="utf-8"?>
<!-- Generator: Adobe Illustrator 18.0.0, SVG Export Plug-In . SVG Version: 6.00 Build 0)  -->
<!DOCTYPE svg PUBLIC "-//W3C//DTD SVG 1.1//EN" "http://www.w3.org/Graphics/SVG/1.1/DTD/svg11.dtd">
<svg version="1.1" id="Layer_1" xmlns="http://www.w3.org/2000/svg" xmlns:xlink="http://www.w3.org/1999/xlink" x="0px" y="0px"
	 viewBox="0 0 319.3 319.3" enable-background="new 0 0 319.3 319.3" xml:space="preserve">
<g>
	<circle fill="#FFFFFF" stroke="#000000" stroke-width="6" stroke-miterlimit="10" cx="159.7" cy="159.7" r="156.7"/>
	<g>
		<polygon points="123.9,161 137.9,161 131,142.7 		"/>
		<path d="M167.2,154.6c-0.7-1-1.6-1.9-2.8-2.5c-1.1-0.7-2.6-1-4.2-1c-1.5,0-2.8,0.3-3.9,1c-1.1,0.6-1.9,1.5-2.6,2.5
			c-0.7,1-1.2,2.2-1.5,3.5c-0.3,1.3-0.5,2.6-0.5,4c0,1.3,0.2,2.7,0.5,4c0.3,1.3,0.8,2.5,1.5,3.5c0.7,1,1.6,1.9,2.6,2.5
			c1.1,0.7,2.4,1,3.9,1c1.7,0,3.1-0.3,4.2-1c1.1-0.6,2.1-1.5,2.8-2.5c0.7-1,1.2-2.2,1.6-3.5c0.3-1.3,0.5-2.6,0.5-4
			c0-1.3-0.2-2.7-0.5-4C168.5,156.8,168,155.6,167.2,154.6z"/>
		<path d="M195.9,154.6c-0.7-1-1.6-1.9-2.8-2.5c-1.1-0.7-2.6-1-4.2-1c-1.5,0-2.8,0.3-3.9,1c-1.1,0.6-1.9,1.5-2.6,2.5
			c-0.7,1-1.2,2.2-1.5,3.5c-0.3,1.3-0.5,2.6-0.5,4c0,1.3,0.2,2.7,0.5,4c0.3,1.3,0.8,2.5,1.5,3.5c0.7,1,1.6,1.9,2.6,2.5
			c1.1,0.7,2.4,1,3.9,1c1.7,0,3.1-0.3,4.2-1c1.1-0.6,2.1-1.5,2.8-2.5c0.7-1,1.2-2.2,1.6-3.5c0.3-1.3,0.5-2.6,0.5-4
			c0-1.3-0.2-2.7-0.5-4C197.2,156.8,196.7,155.6,195.9,154.6z"/>
		<path d="M159.7,12.3c-81.4,0-147.3,66-147.3,147.3S78.3,307,159.7,307S307,241,307,159.7S241,12.3,159.7,12.3z M143.4,175
			l-4.4-11.1h-16.3l-4.3,11.1h-3.6l14.3-35.7h3.8l14,35.7H143.4z M172.4,175h-2.9v-4.9h-0.1c-0.3,0.8-0.8,1.6-1.5,2.3
			s-1.4,1.3-2.2,1.8c-0.8,0.5-1.7,0.9-2.7,1.1c-1,0.3-1.9,0.4-2.8,0.4c-2,0-3.7-0.4-5.1-1.1c-1.5-0.7-2.7-1.7-3.6-3
			c-1-1.2-1.7-2.7-2.1-4.3c-0.5-1.7-0.7-3.4-0.7-5.2c0-1.8,0.2-3.6,0.7-5.2c0.5-1.6,1.2-3.1,2.1-4.4c1-1.2,2.2-2.2,3.6-3
			c1.5-0.7,3.2-1.1,5.1-1.1c1,0,1.9,0.1,2.8,0.3c0.9,0.2,1.8,0.6,2.6,1.1c0.8,0.5,1.5,1.1,2.1,1.8c0.6,0.7,1.1,1.5,1.4,2.5h0.1
			v-14.8h3.2V175z M201.1,175h-2.9v-4.9h-0.1c-0.3,0.8-0.8,1.6-1.5,2.3s-1.4,1.3-2.2,1.8c-0.8,0.5-1.7,0.9-2.7,1.1
			c-1,0.3-1.9,0.4-2.8,0.4c-2,0-3.7-0.4-5.1-1.1c-1.5-0.7-2.7-1.7-3.6-3c-1-1.2-1.7-2.7-2.1-4.3c-0.5-1.7-0.7-3.4-0.7-5.2
			c0-1.8,0.2-3.6,0.7-5.2c0.5-1.6,1.2-3.1,2.1-4.4c1-1.2,2.2-2.2,3.6-3c1.5-0.7,3.2-1.1,5.1-1.1c1,0,1.9,0.1,2.8,0.3
			c0.9,0.2,1.8,0.6,2.6,1.1c0.8,0.5,1.5,1.1,2.1,1.8c0.6,0.7,1.1,1.5,1.4,2.5h0.1v-14.8h3.2V175z"/>
	</g>
</g>
</svg>
