<svg xmlns="http://www.w3.org/2000/svg" xmlns:xlink="http://www.w3.org/1999/xlink" version="1.1" x="0px" y="0px" viewBox="0 0 75 75" enable-background="new 0 0 75 75" xml:space="preserve"><g><g><g><path fill="#282828" d="M37.1 73.4c-19.8 0-35.9-16.1-35.9-35.9c0-19.8 16.1-35.9 35.9-35.9S73 17.7 73 37.5 C73 57.3 56.9 73.4 37.1 73.4L37.1 73.4z M37.1 3.1C18.2 3.1 2.8 18.5 2.8 37.5c0 18.9 15.4 34.3 34.3 34.3s34.3-15.4 34.3-34.3 C71.4 18.5 56 3.1 37.1 3.1L37.1 3.1z"/></g></g><line fill="#282828" stroke="#282828" stroke-width="1.4" stroke-linecap="round" stroke-miterlimit="10" x1="15.5" y1="26.6" x2="15.5" y2="47.8"/><line fill="#282828" stroke="#282828" stroke-width="1.4" stroke-linecap="round" stroke-miterlimit="10" x1="18.1" y1="26.6" x2="18.1" y2="47.8"/><line fill="#282828" stroke="#282828" stroke-width="1.4" stroke-linecap="round" stroke-miterlimit="10" x1="37.5" y1="26.6" x2="37.5" y2="47.8"/><line fill="#282828" stroke="#282828" stroke-width="1.4" stroke-linecap="round" stroke-miterlimit="10" x1="40.1" y1="26.6" x2="40.1" y2="47.8"/><line fill="#282828" stroke="#282828" stroke-width="1.4" stroke-linecap="round" stroke-miterlimit="10" x1="45.1" y1="26.6" x2="45.1" y2="47.8"/><line fill="#282828" stroke="#282828" stroke-width="1.4" stroke-linecap="round" stroke-miterlimit="10" x1="47.7" y1="26.6" x2="47.7" y2="47.8"/><line fill="#282828" stroke="#282828" stroke-width="1.4" stroke-linecap="round" stroke-miterlimit="10" x1="62.8" y1="26.6" x2="62.8" y2="47.8"/><line fill="#282828" stroke="#282828" stroke-width="1.4" stroke-linecap="round" stroke-miterlimit="10" x1="55.2" y1="26.6" x2="55.2" y2="47.8"/><path fill="#282828" d="M12.5 48.6L12.5 48.6c-0.6 0-1-0.5-1-1V26.9c0-0.6 0.5-1 1-1h0c0.6 0 1 0.5 1 1v20.7 C13.5 48.1 13 48.6 12.5 48.6z"/><path fill="#282828" d="M30.9 48.6L30.9 48.6c-0.6 0-1-0.5-1-1V26.9c0-0.6 0.5-1 1-1h0c0.6 0 1 0.5 1 1v20.7 C31.9 48.1 31.4 48.6 30.9 48.6z"/><path fill="#282828" d="M34.2 48.6L34.2 48.6c-0.6 0-1-0.5-1-1V26.9c0-0.6 0.5-1 1-1h0c0.6 0 1 0.5 1 1v20.7 C35.3 48.1 34.8 48.6 34.2 48.6z"/><path fill="#282828" d="M50.7 48.6L50.7 48.6c-0.6 0-1-0.5-1-1V26.9c0-0.6 0.5-1 1-1l0 0c0.6 0 1 0.5 1 1v20.7 C51.8 48.1 51.3 48.6 50.7 48.6z"/><path fill="#282828" d="M23.8 48.6h-0.6c-0.6 0-1-0.5-1-1l0-20.7c0-0.6 0.5-1 1-1h0.6c0.6 0 1 0.5 1 1l0 20.7 C24.8 48.1 24.4 48.6 23.8 48.6z"/><path fill="#282828" d="M27.7 48.6h-0.6c-0.6 0-1-0.5-1-1V26.9c0-0.6 0.5-1 1-1h0.6c0.6 0 1 0.5 1 1v20.7 C28.7 48.1 28.3 48.6 27.7 48.6z"/><path fill="#282828" d="M59.9 48.6h-1.7c-0.6 0-1-0.5-1-1V26.9c0-0.6 0.5-1 1-1h1.7c0.6 0 1 0.5 1 1v20.7 C60.9 48.1 60.5 48.6 59.9 48.6z"/></g></svg>