<?xml version="1.0" encoding="utf-8"?>
<!-- Generator: Adobe Illustrator 18.0.0, SVG Export Plug-In . SVG Version: 6.00 Build 0)  -->
<!DOCTYPE svg PUBLIC "-//W3C//DTD SVG 1.1//EN" "http://www.w3.org/Graphics/SVG/1.1/DTD/svg11.dtd">
<svg version="1.1" id="Layer_1" xmlns="http://www.w3.org/2000/svg" xmlns:xlink="http://www.w3.org/1999/xlink" x="0px" y="0px"
	 viewBox="0 0 222.4 222.4" enable-background="new 0 0 222.4 222.4" xml:space="preserve">
<path fill="#FFFFFF" d="M171.4,0H51C22.9,0,0,22.9,0,51v120.5c0,28,22.9,51,51,51h120.5c28,0,51-22.9,51-51V51
	C222.4,22.9,199.5,0,171.4,0z M185.8,95.1c-0.2,1.8,0,3.8-0.7,5.5c-1,2.6-4.5,4-7,2.4c-2.3-1.5-3.3-4.2-5-6.4
	c0.7,2.5,0.3,5.3-0.9,7.7c-0.6,1.2-1.5,2.4-2.8,2.8c-1,0.3-1.9-0.3-2.6-1c-1.5-1.8-2.3-4.1-2.7-6.4c-0.3,0.5-0.6,1.2-1.3,1.5
	c-1,0.4-2.2-0.1-2.7-0.9c-1.2-1.7-1.7-4-1.3-6c-0.9,0.6-1.9,1.4-3.1,1.3c-1.3-0.3-2.2-1.7-2.2-3c-0.1-1.2-0.1-2.4-0.5-3.5
	c-0.2,0.4-0.3,0.9-0.5,1.3c-1.8-0.5-3-1.9-4.7-2.6c-2.6-0.9-5.5-0.7-8.1,0c-2.9,0.7-5.6,2-8.2,3.3c4.3,4.8,7.9,10.3,10.4,16.3
	c1.7,4,2.9,8.2,2.9,12.5c0,2-0.3,4-1.3,5.8c-0.7,1.2-2.1,1.7-3.1,2.5c-3,1.9-5.9,4.1-8.9,5.9c-1.6-1-2.6-2.7-3.8-4
	c-2.7-3.1-6-6.2-10.4-6.3c3.2,3.7,5.3,8.3,6.1,13.1c0.1,1.1,0.3,2.3-0.5,3.2c-2.4,3-5.6,5.3-8.7,7.6c-3.9,2.7-7.9,5.2-12.3,7.1
	c-1.7,0.6-3.6,1.7-5.4,1c-2-0.9-3-3-4.3-4.6c-2-2.8-4.8-4.9-8-6.1c1.1,2.1,2.3,4,3.2,6.2c1.1,2.3,2.3,4.6,2.7,7.2
	c0.1,0.8,0.2,1.9-0.7,2.4c-12.3,7.4-24.8,14.5-37.6,20.8c-5.2,2.3-10.4,4.9-16,6.1c-1.5,0.3-3.1,0.5-4.5-0.2
	c-1.2-0.8-0.8-2.5-0.7-3.8c0.9-4.1,2.4-8,4-11.8c2.9-6.9,6.4-13.6,9.7-20.3c5.2-9.7,10.4-19.4,16.3-28.7c1.1-1.7,2.2-3.5,3.6-4.9
	c2.6-0.4,5.2,0,7.8,0.6c5.6,1.3,10.8,4.1,15.4,7.5c-1.8-3.7-4.2-7-7.1-9.9c-2.3-2.4-5.2-4.2-7.8-6.2c-0.8-0.6-1.5-1.3-2.2-2
	c0.1-1.9,1.1-3.5,1.9-5.1c4.7-7.9,10.3-15.3,15.8-22.7c1.1-1.5,2.2-2.9,3.4-4.4c1.3-1.6,3.4-2.1,5.4-2.3c3.4-0.3,6.8,0.4,10,1.4
	c7.6,2.4,14.5,6.7,20.4,11.9c1.9-3.6,3.6-7.5,3.9-11.6c0.2-2.2-0.1-4.5-1.5-6.3c-0.7-0.9-1.3-1.9-1.7-3c0.4-0.2,0.9-0.3,1.3-0.5
	c-1.3-0.4-2.7-0.4-4.1-0.6c-1.2-0.3-2.3-1.2-2.4-2.4c0-1.1,0.7-2,1.3-2.8c-2.1,0.5-4.3,0-6.1-1.3c-0.8-0.6-1.4-1.7-0.9-2.7
	c0.3-0.6,0.9-0.9,1.5-1.3c-2.5-0.6-5.3-1.3-6.9-3.4c-1.1-1.2-0.3-2.9,0.9-3.7c2.6-2,6.1-2.8,9.2-1.9c-2.1-1.6-4.7-2.6-6.3-4.8
	c-1.6-2.3-0.5-5.7,1.9-6.9c1.8-0.9,4-0.7,6-0.8c0.1-0.6-0.3-1.5,0.4-1.8c2.1,0.2,3.3,2.3,5.1,3c0-0.8-0.1-1.6,0.1-2.4
	c0.7-0.9,1.8-0.3,2.5,0.3c2.5,2,4.4,4.8,5.1,8c0.1-0.8,0-1.6,0.5-2.2c0.8-0.5,1.5,0.5,1.9,1c1.5,2.3,2.8,4.7,3.6,7.3
	c0.5,1.6,0.4,3.3,0.5,4.9c0.3-0.6,0.8-1.2,1.1-1.7c1.5,1.5,1.6,3.8,1.5,5.7c-0.2,2-0.7,4.2-2,5.8c0.5-0.3,1.1-0.6,1.6-0.9
	c0.9,1.8,0,3.6-0.6,5.3c-1.2,3.5-2.5,7-4.2,10.3c4.2-5.4,7.5-11.6,9.7-18.1c0.9-2.3,1.6-5,3.9-6.3c1.2-0.7,2.5-0.3,3.5,0.5
	c-0.4-2.5-0.3-5.2,0.9-7.4c0.8-1.3,2.3-2.3,3.9-2.1c0.9,0.1,1.5,0.9,2,1.6c0-2.1,0-4.4,1.1-6.2c0.9-1.4,2.8-2.7,4.5-2
	c1.2,0.4,1.9,1.8,1.6,3c1.4-1.4,3.1-2.9,5.1-3.2c1.9-0.3,3.8,0.8,5,2.3c1.8,2.4,1.7,6.2-0.5,8.3c2.2,0.5,2.8,3.5,1.5,5.1
	c-2,2.6-5.5,3.3-8.5,3.8c0.9,0.2,1.9,0.2,2.7,0.6c0.9,0.6,1.3,1.8,0.9,2.8c-0.6,1.9-2.3,3.1-4.1,3.7c-2.6,0.8-5.4,0.9-8.1,1.3
	c0.7,0.4,1.4,0.7,1.8,1.4c0.2,0.9-0.7,1.4-1.3,1.8c-2.3,1.5-5.1,1.7-7.7,2.6c-5.6,1.8-10.4,5.3-15.1,8.7c3.1-1.5,6.3-2.8,9.6-3.9
	c1.8-0.6,3.7-1.5,5.5-0.6c-0.3,0.6-0.6,1.1-0.9,1.6c1.7-1.4,4-1.8,6.2-2c1.9-0.1,4,0.1,5.4,1.5c-0.6,0.4-1.1,0.8-1.7,1.1
	c1.5,0.1,3,0,4.4,0.4c2.6,0.7,4.9,2,7.3,3.3c0.7,0.4,1.4,0.9,1.8,1.7c0.1,1.2-1.6,1-2.4,1.2c3.1,0.6,5.9,2.5,7.9,4.9
	c0.6,0.7,1.5,2,0.4,2.7c-0.8,0.2-1.6,0-2.4,0.1c0.8,1.8,2.8,3,3,5.1C187.3,95.3,186.4,95,185.8,95.1z"/>
</svg>
