<svg xmlns="http://www.w3.org/2000/svg" xmlns:xlink="http://www.w3.org/1999/xlink" version="1.1" x="0px" y="0px" viewBox="0 0 75 75" enable-background="new 0 0 75 75" xml:space="preserve"><g><g><g><path fill="#282828" d="M36.9 73.2C17.1 73.2 1 57.1 1 37.3C1 17.5 17.1 1.4 36.9 1.4s35.9 16.1 35.9 35.9 C72.8 57.1 56.7 73.2 36.9 73.2L36.9 73.2z M36.9 3C18 3 2.6 18.4 2.6 37.3c0 18.9 15.4 34.3 34.3 34.3s34.3-15.4 34.3-34.3 C71.2 18.4 55.8 3 36.9 3L36.9 3z"/></g></g><path fill="#010101" d="M45.7 16.2H28.1c-6.4 0-11.6 5.2-11.6 11.6V46c0 6.4 5.2 11.6 11.6 11.6h17.6c6.4 0 11.5-5.2 11.5-11.6 V27.8C57.2 21.4 52 16.2 45.7 16.2z M55.7 27h-18v-9.3h8C51 17.7 55.3 21.8 55.7 27z M42.6 45.3v-7.6h13.1v7.6H42.6z M32 45.3V28.5 h9.2v16.7H32z M30.5 28.5v7.6H18.1v-7.6H30.5z M30.5 37.6v7.6H18.1v-7.6H30.5z M55.7 36.1H42.6v-7.6h13.1V36.1z M28.1 17.7h8V27 h-18C18.5 21.8 22.8 17.7 28.1 17.7z M18.1 46.8h18v9.3h-8C22.8 56.1 18.5 51.9 18.1 46.8z M45.7 56.1h-8v-9.3h18 C55.3 51.9 51 56.1 45.7 56.1z"/></g></svg>