<svg xmlns="http://www.w3.org/2000/svg" xmlns:xlink="http://www.w3.org/1999/xlink" version="1.1" x="0px" y="0px" viewBox="0 0 75 75" enable-background="new 0 0 75 75" xml:space="preserve"><g><g><g><g><path fill="#282828" d="M37 73.5c-19.8 0-35.9-16.1-35.9-35.9C1.1 17.8 17.2 1.7 37 1.7S73 17.8 73 37.6 C73 57.4 56.8 73.5 37 73.5L37 73.5z M37 3.3C18.1 3.3 2.7 18.7 2.7 37.6c0 18.9 15.4 34.3 34.3 34.3s34.3-15.4 34.3-34.3 C71.4 18.7 56 3.3 37 3.3L37 3.3z"/></g></g><g><g><g><path fill="#282828" d="M10.4 42.5c-0.2 0-0.3-0.1-0.4-0.2c-0.2-0.2-0.2-0.7 0-0.9c1.5-1.5 2.3-3.5 2.3-5.6 c0-2.1-0.8-4.1-2.3-5.6c-0.2-0.2-0.2-0.7 0-0.9c0.2-0.2 0.7-0.2 0.9 0c1.7 1.7 2.7 4 2.7 6.5c0 2.4-0.9 4.7-2.7 6.5 C10.7 42.4 10.6 42.5 10.4 42.5z"/></g><g><path fill="#282828" d="M13.9 45.9c-0.2 0-0.3-0.1-0.4-0.2c-0.2-0.2-0.2-0.7 0-0.9c5-5 5-13.1 0-18.1c-0.2-0.2-0.2-0.7 0-0.9 c0.2-0.2 0.7-0.2 0.9 0c5.5 5.5 5.5 14.4 0 19.9C14.2 45.9 14 45.9 13.9 45.9z"/></g><g><path fill="#282828" d="M17.4 49.5c-0.2 0-0.3-0.1-0.4-0.2c-0.2-0.2-0.2-0.7 0-0.9c6.9-6.9 6.9-18.2 0-25.2 c-0.2-0.2-0.2-0.7 0-0.9c0.2-0.2 0.7-0.2 0.9 0c7.4 7.4 7.4 19.6 0 27C17.8 49.4 17.6 49.5 17.4 49.5z"/></g></g></g></g><g><path fill="#282828" stroke="#282828" stroke-width="0.25" stroke-miterlimit="10" d="M52.2 51.5c-0.3 0.4-0.8 0.9-1.5 1.1 c-1.1 0.4-2.2 0.2-3.3 0c-0.5-0.1-0.9-0.4-1.4-0.7c-0.2-0.1-0.3-0.2-0.5-0.3c-0.5-0.3-0.9-0.5-1.2-1.1c-0.1-0.1-0.2-0.3-0.2-0.4 c-0.2-0.6-0.2-1.3 0.1-1.8c0.1-0.1 0.1-0.1 0.1-0.2c0.4 0.3 0.8 0.7 1.2 1c0.3 0.2 0.5 0.4 0.8 0.6l1.3 1c0.1 0 0.1 0.1 0.2 0.1 c0.1 0 0.2 0 0.3 0.1c0.8 0.2 1.9 0.4 2.7-0.1c0.2-0.1 0.3-0.2 0.4-0.4c0.1-0.1 0.2-0.2 0.3-0.5c0-0.1 0.1-0.2 0.1-0.3 c0.1 0.1 0.1 0.1 0.1 0.2l0.1 0.1c0 0.1 0.1 0.1 0.1 0.2c-0.3-0.5-0.5-0.8-0.6-1c0 0-0.1-0.1-0.2-0.2c-0.1 0.2-0.2 0.4-0.4 0.6 c-0.1 0.1-0.1 0.3-0.2 0.3c-0.1 0.1-0.2 0.2-0.2 0.2c-0.5 0.3-1.4 0.1-2.1 0c-0.1 0-0.2 0-0.2 0l-1.2-1c-0.3-0.2-0.5-0.4-0.8-0.6 c-0.4-0.3-0.8-0.6-1.1-0.9c0-0.1-0.1-0.1-0.1-0.2c-0.1 0-0.1-0.1-0.2-0.1c-0.3-0.3-0.5-0.5-0.7-0.8c-0.3-0.5-0.2-1.8-0.3-2.4 L42.7 44c0.1 0.9 0 2.4 0.5 3.1c0.1 0.2 0.3 0.4 0.5 0.6c-0.1 0.1-0.1 0.2-0.2 0.3c-0.5 0.7-0.5 1.8-0.2 2.6 c0.1 0.2 0.2 0.3 0.3 0.5c0.4 0.7 0.9 1 1.5 1.4c0.2 0.1 0.3 0.2 0.5 0.3c0.5 0.3 1.1 0.6 1.7 0.8c1.3 0.3 2.5 0.5 3.8 0 c0.8-0.3 1.4-0.9 1.8-1.3c0 0 0.1-0.1 0.1-0.1c-0.1-0.3-0.3-0.5-0.4-0.8C52.4 51.3 52.3 51.4 52.2 51.5z"/><path fill="#282828" stroke="#282828" stroke-width="0.25" stroke-miterlimit="10" d="M65.6 45.6c-1.2-1.8-6.4-10.3-7.2-11.2 c-0.7-0.8-2.8-2.5-4.4-2.6c-0.2 0-0.3 0-0.5 0l-0.2 0.8c0.2 0 0.5 0 0.7 0c1.3 0.1 3.2 1.6 3.8 2.4c0.5 0.6 2.5 3.9 7.1 11.1 c0.1 0.1 0.2 0.2 0.4 0.2c0.1 0 0.2 0 0.2-0.1C65.7 46.1 65.7 45.8 65.6 45.6z"/><path fill="#282828" stroke="#282828" stroke-width="0.25" stroke-miterlimit="10" d="M47.2 35.3L46.7 36c1.3 0.7 2.7 1.6 4 2.4 l0.2-0.8C49.7 36.8 48.4 36 47.2 35.3C47.2 35.3 47.2 35.3 47.2 35.3z"/><path fill="#282828" stroke="#282828" stroke-width="0.25" stroke-miterlimit="10" d="M42.3 41.5c0.8 0.7 1.7 1.5 2.7 2.4l2 0.6 c-1.3-1.1-2.8-2.4-4.2-3.6C42.7 41 42.5 41.3 42.3 41.5z"/><path fill="#282828" stroke="#282828" stroke-width="0.25" stroke-miterlimit="10" d="M47 45.3l-0.4-0.1c0.6 0.5 1.1 1 1.7 1.5 c0.7 0.6 1.3 1.1 1.6 1.3c0.1-0.1 0.2-0.2 0.4-0.2c0.5-0.1 0.8 0.4 1 0.7l0 0.1c0.1 0.1 0.1 0.1 0.2 0.2c-0.3-0.5-0.6-0.9-0.8-1.1 C50.6 47.4 50 47 48.9 46c-0.2-0.2-0.5-0.4-0.8-0.7c-0.1 0-0.3 0-0.4 0C47.4 45.4 47.2 45.4 47 45.3z"/><path fill="#282828" stroke="#282828" stroke-width="0.25" stroke-miterlimit="10" d="M51.9 50.8c-0.1 0-0.1 0.1-0.2 0.2 c0.3 0.6 0.6 1.2 0.8 1.7c0.3 0.6 0.6 1.2 0.7 1.5c0.7 1.3 3 2.8 6.3 3.1c0 0 0 0 0 0c0.2 0 0.4-0.2 0.4-0.4 c0-0.2-0.1-0.4-0.4-0.5c-3-0.3-5.1-1.6-5.6-2.6c-0.2-0.3-0.4-0.8-0.7-1.5c-0.4-0.7-0.7-1.5-1-2.1C52.3 50.4 52.1 50.6 51.9 50.8z"/><path fill="#282828" stroke="#282828" stroke-width="0.25" stroke-miterlimit="10" d="M51.4 50.1C51.4 50.1 51.4 50.1 51.4 50.1 c0-0.1 0-0.1-0.1-0.2c-0.1-0.2-0.3-0.4-0.5-0.7c0 0-0.1-0.1-0.1-0.1C50.9 49.5 51.1 49.8 51.4 50.1C51.3 50.2 51.4 50.1 51.4 50.1 z"/><path fill="#282828" stroke="#282828" stroke-width="0.25" stroke-miterlimit="10" d="M54.8 40.8c0.2 0.1 0.5 0.1 0.6-0.1 c0.1-0.2 0.1-0.5-0.1-0.6c-0.8-0.5-2.1-1.2-3.6-2.1l-0.2 0.8C52.6 39.5 53.8 40.1 54.8 40.8z"/><path fill="#282828" stroke="#282828" stroke-width="0.25" stroke-miterlimit="10" d="M38.1 36c-0.5-1.6-0.4-2.4 0.3-3 c0.7-0.6 1.4-0.4 2.1-0.3c0.1 0 0.3 0.1 0.4 0.1c0.3 0.1 2.4 1.2 5 2.7l0.5-0.7c0 0 0 0 0 0c-2.7-1.5-4.9-2.8-5.3-2.9 c-0.1 0-0.2-0.1-0.4-0.1c-0.7-0.2-1.8-0.4-2.8 0.4c-1.3 1.1-1 2.5-0.6 3.9c0.2 0.8 1.8 2.4 4.4 4.7c0.2-0.2 0.3-0.4 0.5-0.7 C40.1 38.3 38.3 36.6 38.1 36z"/><path fill="#282828" stroke="#282828" stroke-width="0.25" stroke-miterlimit="10" d="M45.9 35.5c0.2 0.1 0.5 0.3 0.7 0.4l0.5-0.6 c0 0 0 0 0 0c-0.2-0.1-0.5-0.3-0.7-0.4c0 0 0 0 0 0L45.9 35.5z"/><path fill="#282828" stroke="#282828" stroke-width="0.25" stroke-miterlimit="10" d="M51.3 48.4c-0.2-0.3-0.5-0.7-1-0.7 c-0.1 0-0.3 0.1-0.4 0.2c0.1 0.1 0.2 0.2 0.2 0.2c0.1 0.1 0.4 0.5 0.6 1c0 0 0.1 0.1 0.1 0.1c0.2 0.2 0.3 0.4 0.5 0.7 c0 0.1 0.1 0.1 0.1 0.1c0 0 0 0 0 0c0 0 0 0-0.1 0.1c0.1 0.3 0.3 0.5 0.4 0.8c0.1-0.1 0.1-0.1 0.2-0.2c0.2-0.2 0.4-0.3 0.4-0.6 c-0.3-0.6-0.6-1.1-0.8-1.5C51.4 48.6 51.4 48.6 51.3 48.4L51.3 48.4z"/><path fill="#282828" stroke="#282828" stroke-width="0.25" stroke-miterlimit="10" d="M42.9 40.8c-0.2-0.2-0.4-0.4-0.6-0.6 c-0.2 0.2-0.3 0.4-0.5 0.7c0.2 0.2 0.4 0.4 0.6 0.6C42.5 41.3 42.7 41 42.9 40.8z"/><path fill="#282828" stroke="#282828" stroke-width="0.25" stroke-miterlimit="10" d="M50.9 37.5c0.3 0.1 0.5 0.3 0.7 0.4l1.5-5.3 c-0.3 0-0.6 0-0.9 0L50.9 37.5z"/><path fill="#282828" stroke="#282828" stroke-width="0.25" stroke-miterlimit="10" d="M42.1 43.9l4.6 1.3 c-0.5-0.5-1.1-0.9-1.6-1.3L41.9 43C41.9 43.3 42 43.6 42.1 43.9z"/><path fill="#282828" stroke="#282828" stroke-width="0.25" stroke-miterlimit="10" d="M41.1 42.7l-12.5-3.6 c-0.4-0.1-0.7-0.4-1-0.8c-0.2-0.4-0.3-0.8-0.1-1.2l3.6-12.3c0.2-0.7 0.8-1.2 1.5-1.2c0.2 0 0.3 0 0.4 0.1l18.6 5.4 c0.8 0.2 1.3 1.1 1.1 2l-0.2 0.7c0.3 0 0.6 0 0.9 0l0.1-0.5c0.4-1.3-0.4-2.7-1.7-3l-18.6-5.4c-0.2-0.1-0.5-0.1-0.7-0.1 c-1.1 0-2 0.7-2.3 1.8l-3.6 12.3c-0.2 0.6-0.1 1.3 0.2 1.9c0.3 0.6 0.8 1 1.5 1.2l12.8 3.7C41.1 43.3 41.1 43 41.1 42.7z"/><path fill="#282828" stroke="#282828" stroke-width="0.25" stroke-miterlimit="10" d="M41.9 43l-0.8-0.2c0 0.3 0 0.6 0.1 0.9 l0.9 0.3C42 43.6 41.9 43.3 41.9 43z"/><path fill="#282828" stroke="#282828" stroke-width="0.25" stroke-miterlimit="10" d="M52.6 31.7l-0.2 0.8c0.3 0 0.6 0 0.9 0 l0.2-0.8C53.2 31.8 52.9 31.8 52.6 31.7z"/><path fill="#282828" stroke="#282828" stroke-width="0.25" stroke-miterlimit="10" d="M50.7 38.3c0.3 0.1 0.5 0.3 0.7 0.4l0.2-0.8 c-0.2-0.1-0.5-0.3-0.7-0.4L50.7 38.3z"/><path fill="#282828" stroke="#282828" stroke-width="0.25" stroke-miterlimit="10" d="M45.1 43.9c0.5 0.4 1 0.9 1.6 1.3l0.4 0.1 c0.2 0.1 0.5 0.1 0.7 0.1c0.1 0 0.3 0 0.4 0c-0.3-0.3-0.7-0.6-1.1-0.9L45.1 43.9z"/></g></g></svg>