<svg xmlns="http://www.w3.org/2000/svg" xmlns:xlink="http://www.w3.org/1999/xlink" version="1.1" id="Layer_1" x="0px" y="0px" viewBox="0 0 75 75" enable-background="new 0 0 75 75" xml:space="preserve">
<g>
	<g>
		<g>
			<path fill="#282828" d="M36.9 73.4C17.1 73.4 1 57.3 1 37.5C1 17.7 17.1 1.5 36.9 1.5s35.9 16.1 35.9 35.9 C72.8 57.3 56.7 73.4 36.9 73.4L36.9 73.4z M36.9 3.1C17.9 3.1 2.5 18.5 2.5 37.5c0 18.9 15.4 34.3 34.3 34.3 s34.3-15.4 34.3-34.3C71.2 18.5 55.8 3.1 36.9 3.1L36.9 3.1z"/>
		</g>
	</g>
	<g>
		<path fill="#282828" d="M57 52.2H16.7c-2.2 0-4-1.8-4-4V26.2c0-2.2 1.8-4 4-4H57c2.2 0 4 1.8 4 4v22.1C61 50.4 59.2 52.2 57 52.2z M16.7 23.6c-1.4 0-2.6 1.2-2.6 2.6v22.1c0 1.4 1.2 2.6 2.6 2.6H57c1.4 0 2.6-1.2 2.6-2.6V26.2c0-1.4-1.2-2.6-2.6-2.6H16.7z"/>
	</g>
	<rect x="13.5" y="28.3" fill="#282828" width="46.8" height="6.8"/>
</g>
</svg>
