<?xml version="1.0" encoding="utf-8"?>
<!-- Generator: Adobe Illustrator 18.0.0, SVG Export Plug-In . SVG Version: 6.00 Build 0)  -->
<!DOCTYPE svg PUBLIC "-//W3C//DTD SVG 1.1//EN" "http://www.w3.org/Graphics/SVG/1.1/DTD/svg11.dtd">
<svg version="1.1" id="Layer_1" xmlns="http://www.w3.org/2000/svg" xmlns:xlink="http://www.w3.org/1999/xlink" x="0px" y="0px"
	 viewBox="0 105 300 90" enable-background="new 0 105 300 90" xml:space="preserve">
<g>
	<g>
		<g>
			<path fill="#FFFFFF" d="M1,140.4c0-5.4,0-9.9,0-13.8h12.7v5.7h0.1c3-4.3,8.5-6.7,12.3-6.7c8.9,0,16.5,7.8,16.5,20.9
				c0,14.9-9,22-18.1,22c-5,0-8.9-2-10.7-4.7h-0.1v20.4H1V140.4L1,140.4z M15.2,150.1c0,1,0.1,1.8,0.3,2.7c0.8,3.4,3.8,6.1,7.5,6.1
				c5.5,0,8.9-4.7,8.9-11.6c0-6.6-2.9-11.5-8.6-11.5c-3.6,0-6.8,2.7-7.6,6.5c-0.1,0.7-0.3,1.5-0.3,2.2L15.2,150.1L15.2,150.1z"/>
			<path fill="#FFFFFF" d="M43.3,115.6h12.8v52.2H43.3V115.6L43.3,115.6z"/>
			<path fill="#FFFFFF" d="M92.6,157.9c0,3.9,0,7.6,0,9.9H80.2v-4.1h-0.3c-2.7,3.3-7.2,5-11,5c-8.3,0-12.3-6-12.3-12.6
				c0-10.7,8.6-15.8,23.1-15.8v-0.5c0-2.3-1.2-5.3-7.5-5.3c-2.9,0-5.2,0.4-9.3,2.5l-2-9.4c5-2.3,8.9-2.9,13.7-2.9
				c13.7,0,18,8.9,18,18.7L92.6,157.9L92.6,157.9z M80.1,148.4c-6.8,0-11.9,1.6-11.9,6.5c0,3.3,2.2,4.4,5,4.4c3.1,0,5.8-2.1,6.6-4.7
				c0.1-0.7,0.3-1.5,0.3-2.2V148.4L80.1,148.4z"/>
			<path fill="#FFFFFF" d="M95.5,157.2c2.6,1.2,6.8,2,9.8,2c3.9,0,5.5-1.5,5.5-2.9c0-2.2-1.3-3.2-6-4.7c-8.6-2.9-11.9-7.5-11.8-12.3
				c0-7.7,6.6-14,16.7-14c3.1,0,6,0.6,10.6,1.5l-2,9.4c-4.3-1.3-5.4-1.5-8.1-1.5c-3.1,0-4.9,1.3-4.9,3.3s1.6,3,6.6,4.7
				c7.8,2.7,11,6.8,11.1,12.7c0,7.7-6,13.3-17.7,13.3c-4.3,0-8.9-0.8-11.9-2L95.5,157.2z"/>
			<path fill="#FFFFFF" d="M137.9,115.6v11.1h8.9l-2,9.4H138V151c0,5,1.3,7.2,4.5,7.2c0.8,0,1.2-0.1,2.4-0.3l2,9.4
				c-1.6,0.6-4.7,1.3-8.2,1.3c-4.1,0-7.6-1.5-9.7-3.6c-2.4-2.4-3.6-6.3-3.6-12.2V136h-4.5v-9.3h4.5v-11.2L137.9,115.6L137.9,115.6z"
				/>
			<path fill="#FFFFFF" d="M175.8,166.7c-2.2,1.1-6.6,2-11.4,2c-13.3,0-21.3-8.6-21.3-21.5c0-12,7.7-21.3,23-21.3
				c3.4,0,7.1,0.6,9.8,1.6l-2,9.5c-1.5-0.7-3.8-1.3-7.1-1.3c-6.8,0-11.1,4.7-11,11.5c0,7.5,5,11.5,11.2,11.5c3,0,5.4-0.5,7.3-1.3
				L175.8,166.7z"/>
			<g>
				<path fill="#FFFFFF" d="M176.2,116.3h-1.8V115h5.2v1.3h-1.8v5.5h-1.5L176.2,116.3L176.2,116.3z"/>
				<path fill="#FFFFFF" d="M186,119.2c-0.1-0.8-0.1-1.8-0.1-2.7h-0.1c-0.2,0.8-0.5,1.8-0.8,2.6l-0.8,2.7H183l-0.7-2.6
					c-0.2-0.8-0.4-1.7-0.6-2.7l0,0c-0.1,0.9-0.1,2-0.1,2.8l-0.1,2.5h-1.4l0.4-6.8h2l0.6,2.2c0.2,0.8,0.4,1.6,0.6,2.4h0.1
					c0.2-0.8,0.4-1.7,0.6-2.4l0.7-2.2h2l0.3,6.8h-1.5L186,119.2z"/>
			</g>
		</g>
	</g>
</g>
<g>
	<path fill="#FFFFFF" d="M193.8,167.2l-7.5-29.6h4l3.5,15c0.9,3.7,1.7,7.4,2.2,10.3h0.1c0.5-2.9,1.4-6.5,2.4-10.3l4-14.9h4l3.6,15
		c0.8,3.5,1.6,7,2.1,10.1h0.1c0.6-3.3,1.5-6.6,2.4-10.3l3.9-14.9h3.9l-8.4,29.6h-4l-3.8-15.4c-0.9-3.8-1.5-6.7-2-9.6h-0.1
		c-0.6,2.9-1.2,5.9-2.3,9.6l-4.2,15.4H193.8z"/>
	<path fill="#FFFFFF" d="M236.2,167.2l-0.3-2.7h-0.1c-1.2,1.7-3.5,3.1-6.5,3.1c-4.3,0-6.5-3-6.5-6.1c0-5.2,4.5-8,12.8-7.9v-0.4
		c0-1.7-0.5-4.9-4.8-4.9c-2,0-4,0.6-5.5,1.6l-0.9-2.6c1.7-1.1,4.3-1.9,7-1.9c6.5,0,8.1,4.5,8.1,8.7v8c0,1.8,0.1,3.6,0.3,5.1h-3.6
		V167.2z M235.7,156.4c-4.2-0.1-9,0.6-9,4.8c0,2.5,1.7,3.7,3.6,3.7c2.8,0,4.5-1.7,5.2-3.6c0.1-0.4,0.2-0.8,0.2-1.3V156.4z"/>
	<path fill="#FFFFFF" d="M245.7,136h3.8v31.2h-3.8V136z"/>
	<path fill="#FFFFFF" d="M256.1,136h3.8v31.2h-3.8V136z"/>
	<path fill="#FFFFFF" d="M268.5,157.3c0.1,5.2,3.4,7.4,7.3,7.4c2.8,0,4.5-0.5,5.9-1.1l0.6,2.8c-1.4,0.6-3.7,1.3-7,1.3
		c-6.6,0-10.5-4.3-10.5-10.7s3.8-11.4,10-11.4c6.9,0,8.8,6.1,8.8,10c0,0.8-0.1,1.4-0.1,1.8L268.5,157.3L268.5,157.3z M279.8,154.5
		c0.1-2.4-1-6.3-5.4-6.3c-3.9,0-5.6,3.6-5.9,6.3H279.8z"/>
	<path fill="#FFFFFF" d="M293,139.9v6.1h5.5v3H293v11.4c0,2.7,0.8,4.1,2.9,4.1c1,0,1.7-0.1,2.2-0.3l0.2,2.9c-0.8,0.3-2,0.6-3.4,0.6
		c-1.8,0-3.3-0.6-4.2-1.6c-1.1-1.1-1.5-3-1.5-5.5V149H286V146h3.3v-5.1L293,139.9z"/>
</g>
</svg>
