<?xml version="1.0" encoding="utf-8"?>
<!-- Generator: Adobe Illustrator 18.0.0, SVG Export Plug-In . SVG Version: 6.00 Build 0)  -->
<!DOCTYPE svg PUBLIC "-//W3C//DTD SVG 1.1//EN" "http://www.w3.org/Graphics/SVG/1.1/DTD/svg11.dtd">
<svg version="1.1" id="Layer_1" xmlns="http://www.w3.org/2000/svg" xmlns:xlink="http://www.w3.org/1999/xlink" x="0px" y="0px"
	 viewBox="0 105 300 90" enable-background="new 0 105 300 90" xml:space="preserve">
<g>
	<g>
		<g>
			<path fill="#FFFFFF" d="M1.1,139.3c0-6,0-11.1,0-15.4h14.2v6.4h0.2c3.4-4.8,9.5-7.5,13.8-7.5c10,0,18.5,8.7,18.5,23.4
				c0,16.7-10.1,24.5-20.3,24.5c-5.5,0-9.9-2.3-11.9-5.2h-0.2v22.8H1.1V139.3L1.1,139.3z M17,150.2c0,1.1,0.1,2,0.3,3
				c0.9,3.8,4.3,6.8,8.3,6.8c6.2,0,9.9-5.2,9.9-12.9c0-7.3-3.3-12.9-9.7-12.9c-4,0-7.6,3-8.5,7.2c-0.2,0.8-0.3,1.6-0.3,2.5L17,150.2
				L17,150.2z"/>
			<path fill="#FFFFFF" d="M48.4,111.6h14.3v58.3H48.4V111.6L48.4,111.6z"/>
			<path fill="#FFFFFF" d="M103.4,158.8c0,4.4,0,8.5,0,11.1H89.6v-4.6h-0.3c-3,3.7-8,5.6-12.3,5.6c-9.3,0-13.7-6.7-13.7-14.1
				c0-11.9,9.6-17.6,25.8-17.6v-0.5c0-2.6-1.3-5.9-8.3-5.9c-3.2,0-5.8,0.5-10.4,2.8L68.1,125c5.6-2.6,10-3.3,15.3-3.3
				c15.3,0,20.1,10,20.1,20.9L103.4,158.8L103.4,158.8z M89.5,148.2c-7.6,0-13.3,1.8-13.3,7.2c0,3.7,2.4,4.9,5.6,4.9
				c3.4,0,6.5-2.3,7.4-5.2c0.2-0.8,0.3-1.6,0.3-2.4V148.2L89.5,148.2z"/>
			<path fill="#FFFFFF" d="M106.7,158c2.9,1.3,7.6,2.3,11,2.3c4.4,0,6.2-1.6,6.2-3.2c0-2.4-1.4-3.6-6.7-5.3
				c-9.6-3.2-13.2-8.3-13.2-13.8c0-8.6,7.3-15.6,18.7-15.6c3.4,0,6.7,0.7,11.8,1.6l-2.3,10.5c-4.8-1.4-6.1-1.6-9-1.6
				c-3.4,0-5.5,1.4-5.5,3.7c0,2.3,1.8,3.4,7.4,5.3c8.7,3,12.3,7.6,12.4,14.2c0,8.6-6.7,14.9-19.8,14.9c-4.8,0-9.9-0.9-13.3-2.3
				L106.7,158z"/>
			<path fill="#FFFFFF" d="M154.1,111.6V124h10l-2.3,10.5h-7.6v16.6c0,5.5,1.4,8,5.1,8c0.9,0,1.3-0.1,2.6-0.4l2.3,10.5
				c-1.8,0.7-5.3,1.5-9.2,1.5c-4.6,0-8.5-1.6-10.8-4c-2.6-2.7-4-7.1-4-13.6v-18.7h-5V124h5v-12.5L154.1,111.6L154.1,111.6z"/>
			<path fill="#FFFFFF" d="M196.4,168.6c-2.5,1.2-7.3,2.2-12.8,2.2c-14.9,0-23.8-9.7-23.8-24c0-13.4,8.6-23.8,25.7-23.8
				c3.8,0,7.9,0.7,10.9,1.8l-2.3,10.6c-1.7-0.8-4.3-1.4-7.9-1.4c-7.6,0-12.4,5.3-12.3,12.9c0,8.3,5.6,12.9,12.5,12.9
				c3.4,0,6-0.5,8.2-1.5L196.4,168.6z"/>
			<g>
				<path fill="#FFFFFF" d="M196.8,112.4h-2v-1.5h5.8v1.4h-2v6.2h-1.7V112.4L196.8,112.4z"/>
				<path fill="#FFFFFF" d="M207.7,115.6c-0.1-0.9-0.1-2-0.1-3h-0.1c-0.2,0.9-0.5,2-0.9,2.9l-0.9,3h-1.3l-0.8-2.9
					c-0.2-0.9-0.5-1.9-0.7-3l0,0c-0.1,1-0.1,2.2-0.1,3.1l-0.1,2.8h-1.6l0.5-7.6h2.3l0.7,2.5c0.2,0.9,0.5,1.8,0.6,2.6h0.1
					c0.2-0.9,0.5-1.9,0.7-2.6l0.8-2.5h2.3l0.4,7.6h-1.6L207.7,115.6z"/>
			</g>
		</g>
	</g>
</g>
<g>
	<path fill="#FFFFFF" d="M234.1,167.7c-1.6,0.8-4.7,1.6-8.7,1.6c-9.4,0-16.4-5.9-16.4-16.8c0-10.4,7-17.4,17.3-17.4
		c4.1,0,6.7,0.9,7.9,1.5l-1,3.5c-1.6-0.8-3.9-1.4-6.7-1.4c-7.7,0-12.9,5-12.9,13.6c0,8.1,4.7,13.3,12.7,13.3c2.6,0,5.2-0.5,6.9-1.4
		L234.1,167.7z"/>
	<path fill="#FFFFFF" d="M252.1,168.8l-0.3-3h-0.2c-1.3,1.9-3.9,3.5-7.2,3.5c-4.8,0-7.2-3.4-7.2-6.8c0-5.8,5.1-8.9,14.3-8.8v-0.5
		c0-1.9-0.5-5.5-5.4-5.5c-2.2,0-4.5,0.7-6.2,1.8l-1-2.9c1.9-1.2,4.8-2.1,7.8-2.1c7.2,0,9,5,9,9.7v8.9c0,2,0.1,4.1,0.4,5.7h-4V168.8z
		 M251.5,156.7c-4.7-0.1-10.1,0.7-10.1,5.4c0,2.8,1.9,4.1,4.1,4.1c3.1,0,5.1-1.9,5.8-4c0.2-0.5,0.2-0.9,0.2-1.4V156.7z"/>
	<path fill="#FFFFFF" d="M262.6,152.5c0-2.8-0.1-5.2-0.2-7.4h3.7l0.2,4.7h0.2c1.1-3.2,3.7-5.2,6.5-5.2c0.5,0,0.9,0.1,1.2,0.2v4.1
		c-0.5-0.1-0.9-0.2-1.5-0.2c-3,0-5.2,2.3-5.8,5.5c-0.1,0.6-0.2,1.2-0.2,2v12.6h-4.2V152.5z"/>
	<path fill="#FFFFFF" d="M298.6,133.9v28.7c0,2.1,0.1,4.5,0.2,6.2h-3.9l-0.2-4.1h-0.1c-1.3,2.6-4.2,4.7-8.1,4.7
		c-5.8,0-10.1-4.8-10.1-12.1c-0.1-7.9,4.8-12.8,10.7-12.8c3.7,0,6.1,1.7,7.2,3.7h0.1v-14.2H298.6z M294.3,154.8
		c0-0.5-0.1-1.2-0.2-1.8c-0.6-2.7-3-5-6.2-5c-4.4,0-7.1,3.9-7.1,9.2c0,4.8,2.3,8.8,7,8.8c2.9,0,5.5-1.9,6.3-5.1
		c0.2-0.6,0.2-1.2,0.2-1.9V154.8z"/>
</g>
</svg>
